<svg width="500" height="500" viewBox="0 0 500 500" fill="none" xmlns="http://www.w3.org/2000/svg">
<path d="M500 382.4H0V382.65H500V382.4Z" fill="#EBEBEB"/>
<path d="M449.9 398.49H379.33V398.74H449.9V398.49Z" fill="#EBEBEB"/>
<path d="M356.03 401.21H341V401.46H356.03V401.21Z" fill="#EBEBEB"/>
<path d="M409.75 389.21H396.59V389.46H409.75V389.21Z" fill="#EBEBEB"/>
<path d="M91.29 390.89H52.46V391.14H91.29V390.89Z" fill="#EBEBEB"/>
<path d="M110.88 390.89H100.19V391.14H110.88V390.89Z" fill="#EBEBEB"/>
<path d="M244.14 395.11H189.58V395.36H244.14V395.11Z" fill="#EBEBEB"/>
<path d="M237 337.8H43.91C42.3973 337.797 40.9475 337.195 39.8788 336.124C38.8102 335.054 38.21 333.603 38.21 332.09V60.66C38.2231 59.156 38.8292 57.718 39.8964 56.6582C40.9637 55.5985 42.4059 55.0026 43.91 55H237C238.514 55 239.967 55.6016 241.038 56.6724C242.108 57.7433 242.71 59.1956 242.71 60.71V332.09C242.71 333.604 242.108 335.057 241.038 336.128C239.967 337.198 238.514 337.8 237 337.8ZM43.91 55.2C42.4636 55.2026 41.0774 55.7791 40.0556 56.8027C39.0338 57.8264 38.46 59.2136 38.46 60.66V332.09C38.46 333.536 39.0338 334.924 40.0556 335.947C41.0774 336.971 42.4636 337.547 43.91 337.55H237C238.447 337.547 239.834 336.971 240.858 335.948C241.881 334.924 242.457 333.537 242.46 332.09V60.66C242.457 59.2127 241.881 57.8255 240.858 56.8021C239.834 55.7787 238.447 55.2026 237 55.2H43.91Z" fill="#EBEBEB"/>
<path d="M453.31 337.8H260.21C258.696 337.797 257.246 337.195 256.175 336.125C255.105 335.054 254.503 333.604 254.5 332.09V60.66C254.516 59.1551 255.124 57.7171 256.193 56.6576C257.262 55.5981 258.705 55.0025 260.21 55H453.31C454.812 55.0052 456.252 55.6022 457.317 56.6617C458.382 57.7212 458.987 59.1578 459 60.66V332.09C459 333.601 458.401 335.05 457.335 336.121C456.268 337.191 454.821 337.795 453.31 337.8ZM260.21 55.2C258.763 55.2026 257.375 55.7787 256.352 56.8021C255.329 57.8255 254.753 59.2127 254.75 60.66V332.09C254.753 333.537 255.329 334.924 256.352 335.948C257.375 336.971 258.763 337.547 260.21 337.55H453.31C454.757 337.547 456.145 336.971 457.168 335.948C458.191 334.924 458.767 333.537 458.77 332.09V60.66C458.767 59.2127 458.191 57.8255 457.168 56.8021C456.145 55.7787 454.757 55.2026 453.31 55.2H260.21Z" fill="#EBEBEB"/>
<path d="M71.76 218.81C71.76 218.81 72.3 230.81 93.03 230.81C113.76 230.81 114.31 218.81 114.31 218.81H71.76Z" fill="#F0F0F0"/>
<path d="M173.18 239.58H147.37V382.4H173.18V239.58Z" fill="#E6E6E6"/>
<path d="M168.28 382.4H173.19V372.12H163.14L168.28 382.4Z" fill="#F0F0F0"/>
<path d="M76.7099 239.58H50.8999V382.4H76.7099V239.58Z" fill="#E6E6E6"/>
<path d="M173.19 239.58H72.4399V376.1H173.19V239.58Z" fill="#F0F0F0"/>
<path d="M124.46 245.87L124.46 363.25H169.39V245.87H124.46Z" fill="#E6E6E6"/>
<path d="M76.24 245.87L76.24 363.25H121.17V245.87H76.24Z" fill="#E6E6E6"/>
<path d="M103.15 248.74H94.26C90.596 248.802 87.0116 247.668 84.05 245.51H113.35C110.393 247.669 106.811 248.804 103.15 248.74Z" fill="#F0F0F0"/>
<path d="M151.82 248.74H142.93C139.266 248.802 135.682 247.668 132.72 245.51H162C159.048 247.665 155.474 248.799 151.82 248.74Z" fill="#F0F0F0"/>
<path d="M77.3399 382.4H72.4399V372.12H82.4799L77.3399 382.4Z" fill="#F0F0F0"/>
<path d="M71.76 227.53C71.76 227.53 72.3 239.53 93.03 239.53C113.76 239.53 114.31 227.53 114.31 227.53H71.76Z" fill="#E6E6E6"/>
<path d="M136.17 227C136.17 227 136.5 234.32 149.1 234.32C161.7 234.32 162 227 162 227H136.17Z" fill="#F5F5F5"/>
<path d="M136.17 232.26C136.17 232.26 136.5 239.57 149.1 239.57C161.7 239.57 162 232.26 162 232.26H136.17Z" fill="#E6E6E6"/>
<path d="M149.94 74.5H63.1101V192.37H149.94V74.5Z" fill="#E6E6E6"/>
<path d="M153.73 74.5H64.8799V192.37H153.73V74.5Z" fill="#F0F0F0"/>
<path d="M148.41 185.73V81.14H70.1899V185.73H148.41Z" fill="#FAFAFA"/>
<path d="M148.41 185.73V81.14H147.73V185.73H148.41Z" fill="#E6E6E6"/>
<path d="M114.21 158.27H102.05C100.389 158.264 98.7851 157.662 97.53 156.574C96.2749 155.486 95.4517 153.983 95.21 152.34C94.2812 146.331 91.8339 140.659 88.1 135.86C85.2221 132.085 83.472 127.571 83.0521 122.843C82.6323 118.114 83.5599 113.363 85.7275 109.14C87.8952 104.917 91.2144 101.393 95.301 98.9777C99.3877 96.562 104.075 95.3528 108.82 95.49C113.447 95.6191 117.949 97.0238 121.828 99.5489C125.707 102.074 128.814 105.622 130.805 109.801C132.796 113.979 133.595 118.627 133.112 123.23C132.629 127.834 130.884 132.215 128.07 135.89C124.343 140.7 121.909 146.384 121 152.4C120.76 154.03 119.942 155.52 118.696 156.597C117.45 157.675 115.858 158.268 114.21 158.27ZM108.09 96.79C103.646 96.7819 99.2876 98.0168 95.5082 100.355C91.7288 102.694 88.6787 106.042 86.7024 110.023C84.726 114.004 83.9023 118.458 84.3242 122.882C84.7461 127.306 86.3969 131.525 89.0899 135.06C92.9626 140.036 95.4996 145.918 96.46 152.15C96.654 153.482 97.32 154.701 98.3368 155.584C99.3535 156.466 100.653 156.955 102 156.96H114.16C115.489 156.953 116.771 156.47 117.775 155.598C118.778 154.727 119.436 153.525 119.63 152.21C120.582 145.967 123.12 140.073 127 135.09C129.662 131.607 131.311 127.458 131.767 123.099C132.223 118.739 131.468 114.338 129.585 110.38C127.701 106.422 124.763 103.06 121.092 100.664C117.422 98.2683 113.161 96.9312 108.78 96.8L108.09 96.79Z" fill="#E6E6E6"/>
<path d="M101.6 170.74H114.6C115.77 170.735 116.89 170.267 117.716 169.439C118.542 168.611 119.007 167.49 119.01 166.32C119.007 165.151 118.542 164.031 117.715 163.205C116.889 162.378 115.769 161.913 114.6 161.91H101.6C100.43 161.913 99.309 162.378 98.4809 163.204C97.6529 164.03 97.1852 165.15 97.1799 166.32C97.1826 167.491 97.6491 168.614 98.4774 169.443C99.3058 170.271 100.428 170.737 101.6 170.74Z" fill="#E6E6E6"/>
<path d="M108.1 129C106.98 129.002 105.884 128.672 104.952 128.05C104.019 127.429 103.292 126.545 102.863 125.511C102.433 124.476 102.32 123.337 102.538 122.238C102.756 121.139 103.296 120.13 104.088 119.338C104.88 118.546 105.889 118.006 106.988 117.788C108.087 117.57 109.226 117.683 110.261 118.113C111.295 118.542 112.179 119.269 112.8 120.202C113.421 121.134 113.752 122.23 113.75 123.35C113.747 124.848 113.151 126.283 112.092 127.342C111.033 128.401 109.598 128.997 108.1 129ZM108.1 119C107.242 119 106.402 119.255 105.689 119.731C104.975 120.208 104.419 120.886 104.09 121.679C103.762 122.472 103.676 123.345 103.843 124.187C104.011 125.029 104.424 125.802 105.031 126.409C105.638 127.016 106.411 127.429 107.253 127.597C108.095 127.764 108.968 127.678 109.761 127.35C110.554 127.021 111.232 126.465 111.709 125.751C112.185 125.038 112.44 124.198 112.44 123.34C112.44 122.189 111.983 121.085 111.169 120.271C110.355 119.457 109.251 119 108.1 119Z" fill="#E6E6E6"/>
<path d="M101.52 129C100.4 129 99.3055 128.668 98.3745 128.045C97.4435 127.423 96.7181 126.538 96.29 125.504C95.8619 124.469 95.7504 123.33 95.9696 122.232C96.1888 121.134 96.7289 120.125 97.5214 119.334C98.314 118.543 99.3234 118.005 100.422 117.787C101.521 117.57 102.659 117.684 103.693 118.114C104.727 118.544 105.61 119.271 106.231 120.203C106.852 121.135 107.182 122.23 107.18 123.35C107.18 124.093 107.034 124.828 106.749 125.514C106.464 126.201 106.047 126.824 105.522 127.349C104.996 127.873 104.372 128.289 103.685 128.573C102.999 128.856 102.263 129.001 101.52 129ZM101.52 119C100.662 119 99.8226 119.254 99.1089 119.731C98.3952 120.208 97.8389 120.886 97.5105 121.679C97.182 122.472 97.096 123.345 97.2635 124.187C97.431 125.029 97.8443 125.802 98.4513 126.409C99.0582 127.016 99.8315 127.429 100.673 127.597C101.515 127.764 102.388 127.678 103.181 127.35C103.974 127.021 104.652 126.465 105.129 125.751C105.606 125.037 105.86 124.198 105.86 123.34C105.86 122.189 105.403 121.085 104.589 120.271C103.775 119.457 102.671 119 101.52 119Z" fill="#E6E6E6"/>
<path d="M114.67 129C113.55 129 112.455 128.668 111.524 128.045C110.593 127.423 109.868 126.538 109.44 125.504C109.012 124.469 108.9 123.33 109.12 122.232C109.339 121.134 109.879 120.125 110.671 119.334C111.464 118.543 112.473 118.005 113.572 117.787C114.671 117.57 115.809 117.684 116.843 118.114C117.877 118.544 118.76 119.271 119.381 120.203C120.002 121.135 120.332 122.23 120.33 123.35C120.327 124.849 119.73 126.286 118.669 127.346C117.608 128.405 116.169 129 114.67 129ZM114.67 119C113.812 119 112.973 119.254 112.259 119.731C111.545 120.208 110.989 120.886 110.66 121.679C110.332 122.472 110.246 123.345 110.413 124.187C110.581 125.029 110.994 125.802 111.601 126.409C112.208 127.016 112.981 127.429 113.823 127.597C114.665 127.764 115.538 127.678 116.331 127.35C117.124 127.021 117.802 126.465 118.279 125.751C118.755 125.037 119.01 124.198 119.01 123.34C119.01 122.189 118.553 121.085 117.739 120.271C116.925 119.457 115.821 119 114.67 119Z" fill="#E6E6E6"/>
<path d="M250 427.56C357.083 427.56 443.89 422.492 443.89 416.24C443.89 409.988 357.083 404.92 250 404.92C142.918 404.92 56.1101 409.988 56.1101 416.24C56.1101 422.492 142.918 427.56 250 427.56Z" fill="#F5F5F5"/>
<path d="M425.41 334.13H190.17L197.88 214.68H210.07L203.15 321.94H352.32L352.87 313.41H273.45L274.24 301.22H394.63L401.33 197.28H392.8L386.64 292.69H266.26L264.92 313.41H212.23L224.73 119.62H375.26L375.81 111.08H216.75L210.62 206.15H198.43L201.9 152.32H193.37L181.09 342.67H433.39L434.19 330.27H425.66L425.41 334.13Z" fill="#E6E6DD"/>
<path d="M197.37 90.36L194.64 132.55H203.18L205.35 98.9H392.11L390.77 119.62H418.53L415.07 173.25H402.88L405.55 131.81H290.79L290.24 140.34H350.43L349.64 152.53H255.52L247.54 276.24L247.26 280.5L246.48 292.69H234.29L240.2 201.07H231.67L225.21 301.22H254.46L255.79 280.5H330.49L331.04 271.97H290.88L291.67 259.78H312.59L313.14 251.25H278.4L278.82 244.68H270.29L269.32 259.78H283.14L282.35 271.97H256.35L263.5 161.06H374.41L370.15 227.08H378.69L383.5 152.53H358.18L358.96 140.34H396.47L393.8 181.78H414.52L411.25 232.49H419.78L427.61 111.08H399.86L400.64 98.9H440.58L430.97 248H410.25L406.03 313.41H372.64L372.09 321.94H414.01L418.23 256.53H430.42L426.94 310.5H435.47L449.67 90.36H197.37Z" fill="#E6E6DD"/>
<path d="M241.47 181.3L244.11 140.34H270.45L271 131.81H236.13L232.94 181.3H241.47Z" fill="#E6E6DD"/>
<path d="M345.99 280.5H375.24L377.41 246.85H368.88L367.26 271.97H355.07L355.86 259.78L356.13 255.52L361.44 173.25H274.9L271.57 224.91H280.1L282.88 181.78H352.36L347.88 251.25H332.91L332.36 259.78H347.32L345.99 280.5Z" fill="#E6E6DD"/>
<path d="M321.59 230.53L321.04 239.06H336.48L339.39 193.96H294.29L291.38 239.06H301.94L302.49 230.53H300.46L302.27 202.49H330.3L328.5 230.53H321.59Z" fill="#E6E6DD"/>
<g opacity="0.6">
<path d="M425.41 334.13H190.17L197.88 214.68H210.07L203.15 321.94H352.32L352.87 313.41H273.45L274.24 301.22H394.63L401.33 197.28H392.8L386.64 292.69H266.26L264.92 313.41H212.23L224.73 119.62H375.26L375.81 111.08H216.75L210.62 206.15H198.43L201.9 152.32H193.37L181.09 342.67H433.39L434.19 330.27H425.66L425.41 334.13Z" fill="white"/>
<path d="M197.37 90.36L194.64 132.55H203.18L205.35 98.9H392.11L390.77 119.62H418.53L415.07 173.25H402.88L405.55 131.81H290.79L290.24 140.34H350.43L349.64 152.53H255.52L247.54 276.24L247.26 280.5L246.48 292.69H234.29L240.2 201.07H231.67L225.21 301.22H254.46L255.79 280.5H330.49L331.04 271.97H290.88L291.67 259.78H312.59L313.14 251.25H278.4L278.82 244.68H270.29L269.32 259.78H283.14L282.35 271.97H256.35L263.5 161.06H374.41L370.15 227.08H378.69L383.5 152.53H358.18L358.96 140.34H396.47L393.8 181.78H414.52L411.25 232.49H419.78L427.61 111.08H399.86L400.64 98.9H440.58L430.97 248H410.25L406.03 313.41H372.64L372.09 321.94H414.01L418.23 256.53H430.42L426.94 310.5H435.47L449.67 90.36H197.37Z" fill="white"/>
<path d="M241.47 181.3L244.11 140.34H270.45L271 131.81H236.13L232.94 181.3H241.47Z" fill="white"/>
<path d="M345.99 280.5H375.24L377.41 246.85H368.88L367.26 271.97H355.07L355.86 259.78L356.13 255.52L361.44 173.25H274.9L271.57 224.91H280.1L282.88 181.78H352.36L347.88 251.25H332.91L332.36 259.78H347.32L345.99 280.5Z" fill="white"/>
<path d="M321.59 230.53L321.04 239.06H336.48L339.39 193.96H294.29L291.38 239.06H301.94L302.49 230.53H300.46L302.27 202.49H330.3L328.5 230.53H321.59Z" fill="white"/>
</g>
<path d="M421.09 329.01H360.78L362.25 306.35H399.42L407.03 188.36H388.25L385.05 237.93H362.39L366.8 169.54H270.49L266.34 233.83H286.11L285.44 244.19H324.45L323.12 264.91H343.36L341.84 288.58H261.86L260.59 308.29H217.69L225.3 190.22H246.02L248.91 145.46H279.99L281.33 124.74H383.86L385.07 105.96H211.96L209.54 143.4H186.08V141.47H207.73L210.14 104.02H387.13L385.67 126.68H283.14L281.8 147.4H250.72L247.84 192.15H227.12L219.75 306.35H258.78L260.05 286.64H340.02L341.3 266.85H321.05L322.39 246.13H283.38L284.05 235.76H264.28L268.68 167.6H368.87L364.45 236H383.24L386.43 186.43H409.09L401.23 308.29H364.06L362.85 327.07H419.28L419.77 319.42H442.75V321.35H421.59L421.09 329.01Z" fill="#E6E6DD"/>
<path d="M316.87 222.38H312.47L312.89 215.83H318.37L318.58 212.65H312.02L311.96 213.58H307.56L307.9 208.25H323.27L322.49 220.24H317.01L316.87 222.38Z" fill="#E6E6DD"/>
<path d="M316.56 227.3H312.15L312.37 223.94H316.77L316.56 227.3Z" fill="#E6E6DD"/>
<path d="M95.7799 309.25C101.57 267.76 102.32 240.02 108.4 219.57L143.4 219.04C143.4 219.04 126.7 284.88 119.04 312.3C111.38 339.72 97.6099 407.4 97.6099 407.4H85.8799C85.8799 407.4 85.5699 341.36 95.7799 309.25Z" fill="#263238"/>
<path d="M126.51 249.73C123.95 255.66 118.94 293.73 118.97 312.73L119.09 312.29C121.78 302.66 125.59 288.29 129.4 273.67L126.51 249.73Z" fill="black"/>
<path d="M107.56 413.12C107.56 413.12 97.6498 409.33 96.5598 406.79H87.5598L87.0698 416.24H94.3798L95.2798 415.37L96.6198 416.24C101.09 416.24 105.21 416.07 108.07 415.06C108.163 414.72 108.165 414.362 108.076 414.021C107.986 413.681 107.808 413.37 107.56 413.12Z" fill="#263238"/>
<path d="M129.17 310.42C122.17 269.15 119.26 219.42 119.26 219.42L157.77 218.8C157.77 218.8 153.34 285.86 151.77 313.95C150.17 343.16 149.05 407.43 149.05 407.43H136.22C136.22 407.43 125.29 346.52 129.17 310.42Z" fill="#263238"/>
<path d="M124 113.56C122.29 120.98 121 130.51 118.87 135.99C122.59 139.45 128.62 143.74 136.66 143.62C144.7 143.5 143.23 138.07 141.07 135.27C135.31 132.36 135.07 129.42 136.49 126.84L124 113.56Z" fill="#FF8B7B"/>
<path d="M111.39 137.79C111.39 137.79 116.27 133.49 118.29 132.48C120.31 131.47 135.89 131.81 139.51 132.48C143.13 133.15 147.51 138.55 147.51 138.55L111.39 137.79Z" fill="#263238"/>
<path d="M149.4 112.63C149.23 113.36 149.49 114.03 149.96 114.13C150.43 114.23 150.96 113.73 151.12 113C151.28 112.27 151.03 111.61 150.56 111.5C150.09 111.39 149.56 111.91 149.4 112.63Z" fill="#263238"/>
<path d="M149.13 113.64C149.494 116.059 150.194 118.415 151.21 120.64C149.65 121.56 147.59 120.54 147.59 120.54L149.13 113.64Z" fill="#FF5652"/>
<path d="M151.91 108.45C151.847 108.484 151.776 108.502 151.705 108.502C151.633 108.502 151.563 108.484 151.5 108.45C151.004 108.215 150.46 108.103 149.911 108.122C149.363 108.141 148.828 108.291 148.35 108.56C148.253 108.621 148.135 108.641 148.023 108.617C147.911 108.593 147.813 108.526 147.75 108.43C147.688 108.331 147.668 108.213 147.692 108.099C147.716 107.985 147.784 107.885 147.88 107.82C148.483 107.47 149.161 107.271 149.858 107.24C150.554 107.209 151.248 107.346 151.88 107.64C151.955 107.67 152.02 107.72 152.067 107.784C152.115 107.849 152.144 107.926 152.15 108.006C152.156 108.086 152.14 108.167 152.103 108.238C152.066 108.31 152.009 108.369 151.94 108.41L151.91 108.45Z" fill="#263238"/>
<path d="M125.29 105.24C123.84 114.24 122.53 119.49 126.02 125.04C131.27 133.39 143.23 131.69 147.36 123.24C151.09 115.64 152.84 102.14 144.88 96.7101C143.117 95.507 141.077 94.7708 138.952 94.5703C136.827 94.3698 134.686 94.7117 132.729 95.5638C130.772 96.416 129.063 97.7506 127.762 99.4429C126.461 101.135 125.61 103.13 125.29 105.24Z" fill="#FF8B7B"/>
<path d="M138.53 116.93C135.66 120.3 134.53 124.26 129.46 124.51C124.39 124.76 120.93 125.44 121.18 121.51C121.6 114.94 118.18 106.51 117.63 102.31C117.08 98.11 117.39 91.42 123.12 93.22C121.12 89.32 123.97 85.98 128.42 86.4C136.5 87.16 144.58 92.76 148.97 91.48C153.18 90.24 149.4 89.01 149.4 89.01C149.4 89.01 157.76 88.56 156.32 96.53C154.71 105.4 146.54 102.3 146.54 102.3C146.54 102.3 152.11 109.19 138.53 116.93Z" fill="#263238"/>
<path d="M137.74 112.62C137.204 114.5 137.405 116.513 138.3 118.25C139.49 120.4 141.83 119.41 142.95 117.09C143.95 115 144.57 111.36 142.68 110.03C140.79 108.7 138.4 110.21 137.74 112.62Z" fill="#FF8B7B"/>
<path d="M111.91 136.77C124.36 135.24 142.04 135.38 153.77 137.42C156.674 137.938 159.323 139.405 161.303 141.592C163.283 143.778 164.481 146.559 164.71 149.5C166.17 167.39 162.21 198.68 158.79 230.16C131.18 239.43 103.16 230.04 103.16 230.04C102.55 223.68 105.97 202.87 108.1 191.76C106.53 180.28 102.56 167.15 100.31 151.91C100.057 150.151 100.158 148.36 100.608 146.641C101.057 144.922 101.845 143.31 102.925 141.9C104.006 140.49 105.357 139.309 106.9 138.428C108.443 137.548 110.146 136.984 111.91 136.77Z" fill="#263238"/>
<path opacity="0.1" d="M111.91 136.77C124.36 135.24 142.04 135.38 153.77 137.42C156.674 137.938 159.323 139.405 161.303 141.592C163.283 143.778 164.481 146.559 164.71 149.5C166.17 167.39 162.21 198.68 158.79 230.16C131.18 239.43 103.16 230.04 103.16 230.04C102.55 223.68 105.97 202.87 108.1 191.76C106.53 180.28 102.56 167.15 100.31 151.91C100.057 150.151 100.158 148.36 100.608 146.641C101.057 144.922 101.845 143.31 102.925 141.9C104.006 140.49 105.357 139.309 106.9 138.428C108.443 137.548 110.146 136.984 111.91 136.77Z" fill="white"/>
<path d="M149.4 161.83C151.28 172.61 157.25 185.45 162.7 193.95C163.45 186.51 164.08 179.41 164.48 172.88L149.4 161.83Z" fill="black"/>
<path d="M163.45 146.88L164.86 150.66L166.35 154.56C167.35 157.15 168.35 159.69 169.44 162.13C169.97 163.35 170.53 164.54 171.09 165.67C171.65 166.8 172.2 167.9 172.76 168.87C173.32 169.84 173.9 170.69 174.33 171.31C174.76 171.93 175.13 172.21 174.47 171.98L161.18 179.09C161.087 179.653 161.087 180.227 161.18 180.79C161.208 181.023 161.275 181.25 161.38 181.46C161.49 181.68 161.53 181.55 161.48 181.33C161.246 180.574 160.909 179.854 160.48 179.19C159.338 177.266 158.086 175.409 156.73 173.63C155.31 171.7 153.73 169.76 152.21 167.78C150.69 165.8 149.02 163.78 147.54 161.78L147.39 161.58C146.676 160.614 146.306 159.438 146.339 158.237C146.371 157.037 146.804 155.882 147.569 154.956C148.334 154.03 149.386 153.387 150.559 153.129C151.731 152.87 152.957 153.012 154.04 153.53C156.513 154.728 158.916 156.064 161.24 157.53C163.56 159 165.81 160.53 168.05 162.32C169.16 163.19 170.25 164.12 171.34 165.1C172.492 166.12 173.583 167.205 174.61 168.35C175.833 169.695 176.928 171.151 177.88 172.7C178.543 173.784 179.077 174.942 179.47 176.15C179.745 176.987 179.942 177.847 180.06 178.72C180.229 179.924 180.229 181.146 180.06 182.35C179.876 183.571 179.452 184.744 178.814 185.802C178.175 186.859 177.335 187.78 176.34 188.512C175.345 189.244 174.216 189.773 173.016 190.068C171.817 190.362 170.571 190.418 169.35 190.23C168.619 190.122 167.904 189.927 167.22 189.65L166.78 189.46C165.316 188.854 163.935 188.064 162.67 187.11C161.679 186.38 160.743 185.578 159.87 184.71C158.443 183.279 157.135 181.734 155.96 180.09C153.922 177.285 152.11 174.322 150.54 171.23C148.99 168.3 147.69 165.36 146.47 162.41C145.88 160.92 145.29 159.41 144.77 157.94C144.5 157.19 144.24 156.44 143.99 155.67L143.25 153.28C142.449 150.649 142.701 147.811 143.953 145.362C145.204 142.914 147.357 141.047 149.958 140.155C152.559 139.263 155.405 139.415 157.896 140.58C160.386 141.745 162.327 143.832 163.31 146.4L163.45 146.88Z" fill="#263238"/>
<path opacity="0.1" d="M163.45 146.88L164.86 150.66L166.35 154.56C167.35 157.15 168.35 159.69 169.44 162.13C169.97 163.35 170.53 164.54 171.09 165.67C171.65 166.8 172.2 167.9 172.76 168.87C173.32 169.84 173.9 170.69 174.33 171.31C174.76 171.93 175.13 172.21 174.47 171.98L161.18 179.09C161.087 179.653 161.087 180.227 161.18 180.79C161.208 181.023 161.275 181.25 161.38 181.46C161.49 181.68 161.53 181.55 161.48 181.33C161.246 180.574 160.909 179.854 160.48 179.19C159.338 177.266 158.086 175.409 156.73 173.63C155.31 171.7 153.73 169.76 152.21 167.78C150.69 165.8 149.02 163.78 147.54 161.78L147.39 161.58C146.676 160.614 146.306 159.438 146.339 158.237C146.371 157.037 146.804 155.882 147.569 154.956C148.334 154.03 149.386 153.387 150.559 153.129C151.731 152.87 152.957 153.012 154.04 153.53C156.513 154.728 158.916 156.064 161.24 157.53C163.56 159 165.81 160.53 168.05 162.32C169.16 163.19 170.25 164.12 171.34 165.1C172.492 166.12 173.583 167.205 174.61 168.35C175.833 169.695 176.928 171.151 177.88 172.7C178.543 173.784 179.077 174.942 179.47 176.15C179.745 176.987 179.942 177.847 180.06 178.72C180.229 179.924 180.229 181.146 180.06 182.35C179.876 183.571 179.452 184.744 178.814 185.802C178.175 186.859 177.335 187.78 176.34 188.512C175.345 189.244 174.216 189.773 173.016 190.068C171.817 190.362 170.571 190.418 169.35 190.23C168.619 190.122 167.904 189.927 167.22 189.65L166.78 189.46C165.316 188.854 163.935 188.064 162.67 187.11C161.679 186.38 160.743 185.578 159.87 184.71C158.443 183.279 157.135 181.734 155.96 180.09C153.922 177.285 152.11 174.322 150.54 171.23C148.99 168.3 147.69 165.36 146.47 162.41C145.88 160.92 145.29 159.41 144.77 157.94C144.5 157.19 144.24 156.44 143.99 155.67L143.25 153.28C142.449 150.649 142.701 147.811 143.953 145.362C145.204 142.914 147.357 141.047 149.958 140.155C152.559 139.263 155.405 139.415 157.896 140.58C160.386 141.745 162.327 143.832 163.31 146.4L163.45 146.88Z" fill="white"/>
<path d="M173.48 159.35L175.41 164.52C175.582 164.858 175.654 165.237 175.619 165.614C175.583 165.991 175.441 166.35 175.21 166.65L174 167.84C173.758 168.044 173.474 168.192 173.168 168.274C172.862 168.355 172.542 168.368 172.231 168.312C171.92 168.256 171.625 168.131 171.367 167.948C171.109 167.764 170.895 167.526 170.74 167.25L167.1 161.9C166.896 161.646 166.751 161.35 166.675 161.034C166.599 160.717 166.595 160.388 166.662 160.069C166.729 159.751 166.866 159.451 167.062 159.192C167.259 158.933 167.511 158.72 167.8 158.57L170.64 157.39C171.58 157 173 157.94 173.48 159.35Z" fill="#FF8B7B"/>
<path d="M164.88 413.12C164.88 413.12 149 409.33 148 406.79H139L138.52 416.24H144L144.89 415.37L146.24 416.24C150.71 416.24 162.58 416.07 165.44 415.06C165.527 414.716 165.521 414.355 165.423 414.014C165.324 413.673 165.137 413.365 164.88 413.12Z" fill="#263238"/>
</svg>
