<svg width="500" height="500" viewBox="0 0 500 500" fill="none" xmlns="http://www.w3.org/2000/svg">
<path d="M328.3 53.28C328.3 53.28 255.75 31.92 184.12 75.13C112.49 118.34 76 198.91 44.61 263.55C13.22 328.19 30.61 391.55 84.93 418.13C139.25 444.71 176.55 399.75 253 393.89C329.45 388.03 349.93 397.56 413.63 352.81C477.33 308.06 489.44 209.14 439.89 138.81C390.34 68.48 328.3 53.28 328.3 53.28Z" fill="#2771AD"/>
<path opacity="0.7" d="M328.3 53.28C328.3 53.28 255.75 31.92 184.12 75.13C112.49 118.34 76 198.91 44.61 263.55C13.22 328.19 30.61 391.55 84.93 418.13C139.25 444.71 176.55 399.75 253 393.89C329.45 388.03 349.93 397.56 413.63 352.81C477.33 308.06 489.44 209.14 439.89 138.81C390.34 68.48 328.3 53.28 328.3 53.28Z" fill="white"/>
<path d="M263.25 234.45H244.34V255.38H263.25V234.45Z" fill="#263238" stroke="#263238" stroke-linecap="round" stroke-linejoin="round"/>
<path d="M374.32 108.15H133.25V236.17H374.32V108.15Z" fill="#263238" stroke="#263238" stroke-linecap="round" stroke-linejoin="round"/>
<path d="M368.56 111.21H139.02V233.1H368.56V111.21Z" fill="white"/>
<mask id="mask0_639_1480" style="mask-type:luminance" maskUnits="userSpaceOnUse" x="139" y="111" width="230" height="123">
<path d="M368.56 111.21H139.02V233.1H368.56V111.21Z" fill="white"/>
</mask>
<g mask="url(#mask0_639_1480)">
<path d="M358.57 150.82L300.54 208.84" stroke="#263238" stroke-linecap="round" stroke-linejoin="round"/>
<path d="M350.91 172.79L300.54 223.17" stroke="#263238" stroke-linecap="round" stroke-linejoin="round"/>
<path d="M358.57 165.14L355.11 168.6" stroke="#263238" stroke-linecap="round" stroke-linejoin="round"/>
<path d="M220.46 187.03L162.43 245.06" stroke="#263238" stroke-linecap="round" stroke-linejoin="round"/>
<path d="M212.8 209.01L162.43 259.38" stroke="#263238" stroke-linecap="round" stroke-linejoin="round"/>
<path d="M220.46 201.35L217 204.81" stroke="#263238" stroke-linecap="round" stroke-linejoin="round"/>
<path d="M293.55 73.78L235.52 131.81" stroke="#263238" stroke-linecap="round" stroke-linejoin="round"/>
<path d="M285.89 95.76L235.52 146.13" stroke="#263238" stroke-linecap="round" stroke-linejoin="round"/>
<path d="M287.53 177.7L279.22 183.18V232.32H320.04V182.62L311.16 177.14L287.53 177.7Z" fill="white" stroke="#263238" stroke-linecap="round" stroke-linejoin="round"/>
<path d="M295.28 187.91L299.25 194.9L293.77 223.63L300.38 231L307.38 222.68L301.9 194.52L307 187.72L300.57 179.97L295.28 187.91Z" fill="#2771AD" stroke="#263238" stroke-linecap="round" stroke-linejoin="round"/>
<path d="M289.8 165.42V176.76L300.2 187.15L311.16 176.38V166.18L289.8 165.42Z" fill="#A3A3A3" stroke="#263238" stroke-linecap="round" stroke-linejoin="round"/>
<path d="M289.8 170.33C290.507 171.051 291.266 171.719 292.07 172.33C294.83 174.381 298.177 175.489 301.615 175.489C305.053 175.489 308.4 174.381 311.16 172.33V166.2L289.8 165.44V170.33Z" fill="#263238" stroke="#263238" stroke-linecap="round" stroke-linejoin="round"/>
<path d="M282.24 125.54V145.2C282.24 145.2 277.33 142.2 275.82 147.66C274.31 153.12 278.09 157.86 280.16 158.05C281.248 158.201 282.357 158.07 283.38 157.67C283.38 157.67 286.02 165.42 292.07 169.96C295.184 172.266 299.029 173.364 302.891 173.05C306.753 172.735 310.37 171.03 313.07 168.25C316.82 164.25 319.68 157.1 319.68 157.1C319.68 157.1 324.97 159.37 326.68 154.46C329.07 147.57 326.31 145.2 324.6 144.46C322.89 143.72 319.88 144.65 319.88 144.65C319.88 144.65 321.2 131.8 319.88 126.32C318.56 120.84 306.27 117.82 299.28 117.82C292.29 117.82 283.19 122.9 282.24 125.54Z" fill="#A3A3A3" stroke="#263238" stroke-linecap="round" stroke-linejoin="round"/>
<path d="M319.85 126.3C318.53 120.82 306.24 117.8 299.25 117.8C292.26 117.8 283.19 122.9 282.25 125.54V145.2H284.9C284.9 145.2 283.95 140.1 285.28 137.26C286.61 134.42 287.92 133.67 288.11 131.97C288.3 130.27 286.6 126.11 286.6 126.11H317.4C317.4 126.11 315.32 130.46 316.27 132.54C317.22 134.62 318.35 136.32 318.35 137.26V144.44H319.86C320 142.72 321.07 131.37 319.85 126.3Z" fill="#263238" stroke="#263238" stroke-linecap="round" stroke-linejoin="round"/>
<path d="M298.5 146.33C298.5 146.33 296.23 149.33 297.93 152.19C299.63 155.05 303.79 155.03 305.87 152.76C307.95 150.49 305.87 147.47 305.11 146.14" stroke="#263238" stroke-linecap="round" stroke-linejoin="round"/>
<path d="M303.41 159.37C303.41 160.31 302.86 161.07 302.18 161.07C301.5 161.07 300.95 160.31 300.95 159.37C300.95 158.43 301.5 157.67 302.18 157.67C302.86 157.67 303.41 158.43 303.41 159.37Z" fill="#263238" stroke="#263238" stroke-linecap="round" stroke-linejoin="round"/>
<path d="M293.11 145.01C293.789 145.01 294.34 144.124 294.34 143.03C294.34 141.937 293.789 141.05 293.11 141.05C292.431 141.05 291.88 141.937 291.88 143.03C291.88 144.124 292.431 145.01 293.11 145.01Z" fill="#263238"/>
<path d="M311.44 143C311.44 144.09 310.89 145 310.21 145C309.53 145 308.98 144.11 308.98 143C308.98 141.89 309.53 141 310.21 141C310.89 141 311.44 141.93 311.44 143Z" fill="#263238"/>
<path d="M296.14 137.83H290.18C289.76 137.83 289.42 138.17 289.42 138.59V138.96C289.42 139.38 289.76 139.72 290.18 139.72H296.14C296.56 139.72 296.9 139.38 296.9 138.96V138.59C296.9 138.17 296.56 137.83 296.14 137.83Z" fill="#263238" stroke="#263238" stroke-linecap="round" stroke-linejoin="round"/>
<path d="M312.29 137.83H306.33C305.91 137.83 305.57 138.17 305.57 138.59V138.96C305.57 139.38 305.91 139.72 306.33 139.72H312.29C312.71 139.72 313.05 139.38 313.05 138.96V138.59C313.05 138.17 312.71 137.83 312.29 137.83Z" fill="#263238" stroke="#263238" stroke-linecap="round" stroke-linejoin="round"/>
<path d="M300.2 187.15L290.56 195.09L287.53 177.7L289.8 176.76L300.2 187.15Z" fill="white" stroke="#263238" stroke-linecap="round" stroke-linejoin="round"/>
<path d="M300.2 187.15L311.72 195.85L314.18 178.84L311.16 176.38L300.2 187.15Z" fill="white" stroke="#263238" stroke-linecap="round" stroke-linejoin="round"/>
<path d="M288.67 176.95L300.38 229.11L313.05 177.33L341.2 191.5L349.33 232.89H251.06L263.16 189.61L288.67 176.95Z" fill="#263238" stroke="#263238" stroke-linecap="round" stroke-linejoin="round"/>
<path d="M264.25 150.32H136.34V125.14H270.67L264.25 150.32Z" fill="#2771AD"/>
<path d="M157.1 134.5V135C157.1 136.53 156.64 137.51 155.6 138C156.85 138.49 157.34 139.62 157.34 141.19V142.4C157.34 144.7 156.13 145.93 153.79 145.93H150.11V131.08H153.64C156.06 131.08 157.1 132.21 157.1 134.5ZM152.45 133.21V137.14H153.36C154.23 137.14 154.77 136.76 154.77 135.57V134.74C154.77 133.67 154.41 133.21 153.58 133.21H152.45ZM152.45 139.21V143.78H153.79C154.58 143.78 155 143.42 155 142.32V141.02C155 139.64 154.55 139.21 153.49 139.21H152.45Z" fill="#263238"/>
<path d="M164.06 146C163.861 145.412 163.786 144.789 163.84 144.17V141.83C163.84 140.45 163.38 139.94 162.31 139.94H161.51V146H159.17V131.08H162.7C165.12 131.08 166.16 132.21 166.16 134.5V135.67C166.16 137.2 165.67 138.2 164.63 138.67C165.8 139.16 166.18 140.29 166.18 141.84V144.13C166.135 144.745 166.224 145.363 166.44 145.94L164.06 146ZM161.51 133.25V137.82H162.42C163.29 137.82 163.82 137.43 163.82 136.24V134.78C163.82 133.71 163.46 133.25 162.63 133.25H161.51Z" fill="#263238"/>
<path d="M170.48 137.35H173.69V139.48H170.48V143.83H174.48V146H168.1V131.08H174.48V133.21H170.48V137.35Z" fill="#263238"/>
<path d="M184 146H181.6L181.19 143.3H178.33L177.92 146H175.77L178.15 131.12H181.58L184 146ZM178.66 141.28H180.92L179.79 133.76L178.66 141.28Z" fill="#263238"/>
<path d="M188.53 140L187.81 141.36V146H185.47V131.08H187.81V137.56L190.87 131.08H193.21L190 137.71L193.26 145.96H190.8L188.53 140Z" fill="#263238"/>
<path d="M194.7 131.08H197V146H194.7V131.08Z" fill="#263238"/>
<path d="M201.24 135.18V146H199.14V131.08H202.07L204.48 139.99V131.08H206.56V146H204.16L201.24 135.18Z" fill="#263238"/>
<path d="M212.17 137.67H215.45V142.39C215.45 144.77 214.26 146.13 211.96 146.13C209.66 146.13 208.47 144.77 208.47 142.39V134.65C208.47 132.27 209.66 130.91 211.96 130.91C214.26 130.91 215.45 132.27 215.45 134.65V136.1H213.23V134.5C213.23 133.44 212.77 133.04 212.02 133.04C211.27 133.04 210.81 133.44 210.81 134.5V142.5C210.81 143.56 211.28 143.94 212.02 143.94C212.76 143.94 213.23 143.56 213.23 142.5V139.8H212.17V137.67Z" fill="#263238"/>
<path d="M154 161.53V178.76H150.64V155H155.33L159.17 169.24V155H162.5V178.79H158.66L154 161.53Z" fill="#263238"/>
<path d="M169.56 165H174.69V168.4H169.56V175.4H176V178.79H165.8V155H176V158.4H169.54L169.56 165Z" fill="#263238"/>
<path d="M187.31 166.08L186 178.76H180.86L178.16 155H181.8L183.8 173.76L185.61 155H189.21L191.08 173.9L193 155H196.26L193.61 178.79H188.61L187.31 166.08Z" fill="#263238"/>
<path d="M203.86 154.7C207.5 154.7 209.37 156.87 209.37 160.7V161.45H205.84V160.45C205.84 158.75 205.16 158.1 203.97 158.1C202.78 158.1 202.1 158.75 202.1 160.45C202.1 165.35 209.4 166.26 209.4 173.06C209.4 176.87 207.5 179.06 203.83 179.06C200.16 179.06 198.25 176.88 198.25 173.06V171.6H201.79V173.3C201.79 175 202.54 175.61 203.73 175.61C204.92 175.61 205.67 175 205.67 173.3C205.67 168.41 198.36 167.49 198.36 160.69C198.36 156.87 200.23 154.7 203.86 154.7Z" fill="#263238"/>
<path d="M369.43 223.91H136.34V228.35H369.43V223.91Z" fill="#2771AD"/>
</g>
<path d="M368.56 111.21H139.02V233.1H368.56V111.21Z" stroke="#263238" stroke-linecap="round" stroke-linejoin="round"/>
<path d="M284.41 252.18H223.17V256.74H284.41V252.18Z" fill="#263238" stroke="#263238" stroke-linecap="round" stroke-linejoin="round"/>
<path d="M90.98 236.91L86.79 256.12H97.96L90.98 236.91Z" fill="#263238" stroke="#263238" stroke-linecap="round" stroke-linejoin="round"/>
<path d="M116.45 217.01H84.6799L94.4899 256.46H126.26L116.45 217.01Z" fill="#263238" stroke="#263238" stroke-linecap="round" stroke-linejoin="round"/>
<path d="M113.92 221.55H89.46L97.02 251.93H121.48L113.92 221.55Z" fill="white" stroke="#263238" stroke-linecap="round" stroke-linejoin="round"/>
<path d="M413.91 239C413.91 239 390.03 202.59 393.61 194.23C397.19 185.87 409.73 200.23 409.73 200.23C409.73 200.23 391.23 151.28 403.73 140.53C416.23 129.78 420.45 184.71 420.45 184.71C420.45 184.71 431.82 153 440.77 165C449.72 177 427 202 427 202C427 202 442.53 202.6 438.35 212.74C434.17 222.88 422.83 233.64 422.83 233.64L413.91 239Z" fill="#2771AD"/>
<path d="M409.07 231.09C409.07 231.09 394.23 217.15 393.78 210.85C393.33 204.55 403.22 212.2 407.27 214.9C411.32 217.6 396.93 197.36 397.38 182.52C397.83 167.68 405.92 173.52 408.62 179.83C411.32 186.14 412.67 191.97 414.02 193.32C415.37 194.67 417.61 182.97 423.46 186.12C432.8 191.12 417.61 208.12 420.76 211.3C423.91 214.48 431.1 197.81 434.7 206.81C438.3 215.81 423 232 423 232" stroke="#263238" stroke-linecap="round" stroke-linejoin="round"/>
<path d="M418.51 230.19L407.27 196.46" stroke="#263238" stroke-linecap="round" stroke-linejoin="round"/>
<path d="M412.67 213.1L417.16 202.76" stroke="#263238" stroke-linecap="round" stroke-linejoin="round"/>
<path d="M403.67 219.85L416.26 223L422.56 218.5" stroke="#263238" stroke-linecap="round" stroke-linejoin="round"/>
<path d="M431.82 228.25H400.18L403.34 256.31H428.66L431.82 228.25Z" fill="#263238" stroke="#263238" stroke-linecap="round" stroke-linejoin="round"/>
<path d="M446 256.73H74.52V407.61H446V256.73Z" fill="white" stroke="#263238" stroke-linecap="round" stroke-linejoin="round"/>
<path d="M256.1 277.42H85.01V330.35H256.1V277.42Z" fill="white" stroke="#263238" stroke-linecap="round" stroke-linejoin="round"/>
<path d="M436.27 277.42H265.18V330.35H436.27V277.42Z" fill="white" stroke="#263238" stroke-linecap="round" stroke-linejoin="round"/>
<path d="M256.1 342.42H85.01V395.35H256.1V342.42Z" fill="white" stroke="#263238" stroke-linecap="round" stroke-linejoin="round"/>
<path d="M436.27 342.42H265.18V395.35H436.27V342.42Z" fill="white" stroke="#263238" stroke-linecap="round" stroke-linejoin="round"/>
<path d="M446 259.58H74.52V270.35H446V259.58Z" fill="#263238" stroke="#263238" stroke-linecap="round" stroke-linejoin="round"/>
<path d="M446 256.73H74.52V267.5H446V256.73Z" fill="#5E5E5E" stroke="#263238" stroke-linecap="round" stroke-linejoin="round"/>
<path d="M332.85 266.54C332.85 266.54 329 273.17 329 276.76C329 280.35 330.93 283.39 329.55 286.15C328.17 288.91 327.89 291.15 329.27 297.75C330.65 304.35 333.14 312.39 337.01 312.67C340.88 312.95 347.78 312.94 347.78 312.94C348.903 315.955 348.998 319.256 348.05 322.33C346.4 327.03 338.11 332.55 330.05 336.97C321.99 341.39 306.85 346.09 303.54 351.33C300.23 356.57 297.46 365.42 297.46 365.42H418.19C415.975 359.872 413.299 354.52 410.19 349.42C405.5 341.96 396.66 339.2 385.89 331.47C375.12 323.74 372.63 311.58 372.63 303.57C372.63 295.56 371.53 275.95 360.48 266.57C349.43 257.19 336.17 262.12 332.85 266.54Z" fill="white" stroke="#263238" stroke-linecap="round" stroke-linejoin="round"/>
<path d="M410.18 349.4C405.49 341.94 396.65 339.18 385.88 331.45C384.228 330.256 382.701 328.899 381.32 327.4C376.58 331.84 368.66 337.07 357.99 336.4C348.99 335.85 342.99 333.54 339.24 331.35C336.288 333.373 333.234 335.242 330.09 336.95C322.09 341.37 306.89 346.07 303.58 351.31C300.27 356.55 297.5 365.4 297.5 365.4H418.19C415.972 359.852 413.293 354.5 410.18 349.4Z" fill="#2771AD" stroke="#263238" stroke-linecap="round" stroke-linejoin="round"/>
<path d="M352.74 243.62C352.74 243.62 351.08 237.82 342.52 238.37C333.96 238.92 333.13 248.32 330.92 249.97C328.71 251.62 322.08 250.53 321.25 258.53C320.42 266.53 324.25 269.86 330.64 269.86C337.03 269.86 335.34 271.24 337 278.7C338.66 286.16 341.14 287.26 345 287.81C348.86 288.36 351.36 288.09 350.25 292.81C349.14 297.53 349.42 302.2 352.46 306.07C355.5 309.94 364.61 312.97 373.46 308.83C382.31 304.69 388.1 296.95 389.46 278.73C390.82 260.51 385.59 253.87 379.79 251.66C373.99 249.45 372.61 248.9 370.96 246.66C369.31 244.42 371.23 240.31 364.05 240.31C360.026 240.196 356.068 241.355 352.74 243.62Z" fill="#5C5C5C" stroke="#263238" stroke-linecap="round" stroke-linejoin="round"/>
<path d="M346.45 282.76C348.147 283.421 349.98 283.658 351.79 283.45" stroke="#263238" stroke-linecap="round" stroke-linejoin="round"/>
<path d="M330.3 256.8C330.3 256.8 325.16 263.39 329.01 264.97C332.86 266.55 338.46 261.1 340.61 269.69C341.61 273.69 342.11 277.11 343.29 279.53" stroke="#263238" stroke-linecap="round" stroke-linejoin="round"/>
<path d="M385.33 276.49C385.33 276.49 382.84 264.06 372.62 261.85C362.4 259.64 360.47 270.96 361.02 282.85C361.57 294.74 358.54 295.55 355.22 304.94C351.9 314.33 363.22 314.33 360.75 320.41C358.28 326.49 352.75 328.41 356.05 334.5C359.35 340.59 366.55 337.26 365.44 345.5C364.33 353.74 373.18 363.18 384.22 359.59C395.26 356 401.62 349.09 401.35 336.67C401.08 324.25 391.13 318.16 393.61 310.98C396.09 303.8 399.97 302.42 397.2 295.24C394.43 288.06 385.88 287.53 385.33 276.49Z" fill="#5C5C5C" stroke="#263238" stroke-linecap="round" stroke-linejoin="round"/>
<path d="M366.42 282.77C366.748 284.365 367.322 285.9 368.12 287.32C372.85 295.48 359.12 303.22 361.67 307.52C364.22 311.82 376.29 316.11 368.98 323.85C361.67 331.59 366.4 336.31 370.7 339.32C375 342.33 365.97 346.63 370.7 351.32C375.43 356.01 383.16 359.48 390.47 351.75" stroke="#263238" stroke-linecap="round" stroke-linejoin="round"/>
<path d="M367.69 265.83C367.146 267.64 366.725 269.484 366.43 271.35" stroke="#263238" stroke-linecap="round" stroke-linejoin="round"/>
<path d="M139.58 325.1C139.58 325.1 110.58 338.1 103.67 340.84C96.7601 343.58 87.9301 345 85.7201 350C83.5101 355 81.8601 366.3 81.8601 366.3H237.35C237.35 366.3 230.17 347.79 224.09 343.37C218.01 338.95 198.41 334.26 189.57 330.95C180.73 327.64 179.07 325.95 174.38 325.42C169.69 324.89 139.58 325.1 139.58 325.1Z" fill="#2771AD" stroke="#263238" stroke-linecap="round" stroke-linejoin="round"/>
<path d="M178 260.19C178 260.19 183 267.65 182.42 270.96C181.84 274.27 180.48 276.21 181.31 278.42C182.14 280.63 184.9 281.42 185.46 286.15C186.02 290.88 187.11 302.15 184.63 305.21C182.15 308.27 171.63 311.01 171.63 311.01V321.78L143.46 320.68V302.45C143.46 302.45 139.59 297.45 139.59 284.77C139.59 272.09 156.71 260.47 163.07 257.43C169.43 254.39 178 260.19 178 260.19Z" fill="white" stroke="#263238" stroke-linecap="round" stroke-linejoin="round"/>
<path d="M176.31 263.51C176.31 263.51 179.63 270.13 177.14 272.62C174.65 275.11 172.14 275.38 172.45 278.42C172.76 281.46 173 283.42 170.79 284.77C168.58 286.12 166.65 285.6 166.37 287.26C166.09 288.92 167.47 301.34 162.23 306.31C156.99 311.28 145.1 311.84 140.41 306.87C135.72 301.9 124.94 286.43 121.07 275.11C117.2 263.79 131.57 254.94 134.33 253.84C137.09 252.74 140.96 253.29 141.79 249.14C142.62 244.99 144.55 241.41 151.73 239.48C158.91 237.55 164.44 247.21 167.73 246.11C171.02 245.01 174.91 238.93 181.82 242.52C188.73 246.11 187.34 257.43 184.03 260.52C181.866 262.356 179.147 263.41 176.31 263.51Z" fill="#263238" stroke="#263238" stroke-linecap="round" stroke-linejoin="round"/>
<path d="M188.46 273.17L164.99 284.77" stroke="#263238" stroke-linecap="round" stroke-linejoin="round"/>
<path d="M182.11 272.62C182.11 272.62 190.11 272.34 189.85 274C189.59 275.66 189.85 282 188.19 283.12C187.816 283.44 187.365 283.659 186.882 283.755C186.399 283.851 185.899 283.822 185.43 283.67" stroke="#263238" stroke-linecap="round" stroke-linejoin="round"/>
<path d="M139.58 317.36L136.26 326.75L181.56 327.86C181.56 327.86 177.42 319.02 173.56 317.64C169.7 316.26 144.83 315.71 139.58 317.36Z" fill="#2771AD" stroke="#263238" stroke-linecap="round" stroke-linejoin="round"/>
<path d="M173 287.26C173 287.26 167.47 278.14 163.33 282.01C159.19 285.88 162.5 293.61 165.82 297.2C169.14 300.79 171.62 298.86 173.27 296.65" fill="white"/>
<path d="M173 287.26C173 287.26 167.47 278.14 163.33 282.01C159.19 285.88 162.5 293.61 165.82 297.2C169.14 300.79 171.62 298.86 173.27 296.65" stroke="#263238" stroke-linecap="round" stroke-linejoin="round"/>
<path d="M45.53 358H463.11C467.375 358 471.465 359.694 474.48 362.71C477.496 365.725 479.19 369.815 479.19 374.08V440.55H29.45V374.1C29.4473 371.987 29.8613 369.894 30.6682 367.94C31.4752 365.987 32.6592 364.212 34.1526 362.717C35.646 361.222 37.4196 360.035 39.3718 359.226C41.324 358.417 43.4166 358 45.53 358Z" fill="#707070"/>
<path d="M45.53 390.43H463.11C467.375 390.43 471.465 392.124 474.48 395.14C477.496 398.155 479.19 402.245 479.19 406.51V460.83H29.45V406.52C29.4486 404.407 29.8636 402.315 30.6711 400.363C31.4786 398.411 32.6628 396.637 34.1561 395.143C35.6494 393.649 37.4225 392.464 39.3741 391.655C41.3257 390.846 43.4175 390.43 45.53 390.43Z" fill="#3D3D3D"/>
</svg>
