<svg width="750" height="500" viewBox="0 0 750 500" fill="none" xmlns="http://www.w3.org/2000/svg">
<path d="M700 136C700 136 661 45.9999 538 26.9999C415 7.99995 360.11 41.9999 325 87.9999C289.89 134 265 78 162 74C125.5 72.58 84.28 79.1199 59.21 108.33C39.91 130.82 32.39 165.66 50.71 191.03C66.94 213.51 104.08 247.35 86 278.03C63 317.03 33 377.03 65 422.03C97 467.03 131 486.03 230 467.03C329 448.03 364 409.03 412 433.03C460 457.03 559 494.03 618 480.03C677 466.03 658 394.03 654 369.03C650 344.03 715 318.03 717 251.03C719 184.03 711 161 700 136Z" fill="#407BFF"/>
<path opacity="0.7" d="M700 136C700 136 661 45.9999 538 26.9999C415 7.99995 360.11 41.9999 325 87.9999C289.89 134 265 78 162 74C125.5 72.58 84.28 79.1199 59.21 108.33C39.91 130.82 32.39 165.66 50.71 191.03C66.94 213.51 104.08 247.35 86 278.03C63 317.03 33 377.03 65 422.03C97 467.03 131 486.03 230 467.03C329 448.03 364 409.03 412 433.03C460 457.03 559 494.03 618 480.03C677 466.03 658 394.03 654 369.03C650 344.03 715 318.03 717 251.03C719 184.03 711 161 700 136Z" fill="white"/>
<path d="M708 302H46" stroke="#263238" stroke-linecap="round" stroke-linejoin="round"/>
<path d="M708 311H46" stroke="#263238" stroke-linecap="round" stroke-linejoin="round"/>
<path d="M583.15 321.27C588.226 321.27 592.34 310.476 592.34 297.16C592.34 283.844 588.226 273.05 583.15 273.05C578.075 273.05 573.96 283.844 573.96 297.16C573.96 310.476 578.075 321.27 583.15 321.27Z" fill="#407BFF" stroke="#263238" stroke-miterlimit="10"/>
<path d="M611.71 282.29C608.84 291.29 603.32 297.66 599.38 296.41C595.44 295.16 594.58 286.81 597.45 277.77C600.32 268.73 605.85 262.4 609.79 263.65C613.73 264.9 614.58 273.25 611.71 282.29Z" fill="#407BFF" stroke="#263238" stroke-miterlimit="10"/>
<path d="M544.26 336.84C534.9 335.25 527.87 330.66 528.56 326.59C529.25 322.52 537.4 320.5 546.75 322.09C556.1 323.68 563.14 328.26 562.45 332.33C561.76 336.4 553.61 338.42 544.26 336.84Z" fill="#407BFF" stroke="#263238" stroke-miterlimit="10"/>
<path d="M620.37 314.54C612.55 322.29 603.37 325.66 599.74 322.05C596.11 318.44 599.6 309.24 607.42 301.49C615.24 293.74 624.47 290.38 628 294C631.53 297.62 628.18 306.79 620.37 314.54Z" fill="#407BFF" stroke="#263238" stroke-miterlimit="10"/>
<path d="M566.51 293.28C574.07 304.28 576.32 315.81 571.51 319.1C566.7 322.39 556.73 316.18 549.17 305.21C541.61 294.24 539.36 282.69 544.17 279.39C548.98 276.09 559 282.32 566.51 293.28Z" fill="#407BFF" stroke="#263238" stroke-miterlimit="10"/>
<path d="M583.79 320.08L584.5 393.43" stroke="#263238" stroke-miterlimit="10" stroke-linecap="round"/>
<path d="M582.93 288.2L583.79 320.08" stroke="#263238" stroke-miterlimit="10" stroke-linecap="round"/>
<path d="M583 283L582.93 285.44" stroke="#263238" stroke-miterlimit="10" stroke-linecap="round"/>
<path d="M571.51 317.54C576.775 328.43 579.86 340.246 580.59 352.32V397.69" stroke="#263238" stroke-miterlimit="10" stroke-linecap="round"/>
<path d="M555.71 293.38C562.025 300.697 567.338 308.822 571.51 317.54" stroke="#263238" stroke-miterlimit="10" stroke-linecap="round"/>
<path d="M550.75 288.12C550.75 288.12 551.75 288.99 553.26 290.66" stroke="#263238" stroke-miterlimit="10" stroke-linecap="round"/>
<path d="M600.31 320.94C593.861 329.981 588.836 339.957 585.41 350.52" stroke="#263238" stroke-miterlimit="10" stroke-linecap="round"/>
<path d="M610.89 308.79C606.993 312.502 603.451 316.569 600.31 320.94" stroke="#263238" stroke-miterlimit="10" stroke-linecap="round"/>
<path d="M622.18 300.18C619.325 301.805 616.644 303.718 614.18 305.89" stroke="#263238" stroke-miterlimit="10" stroke-linecap="round"/>
<path d="M599.92 294.17C594.83 310.17 588 333.88 584.81 354.43" stroke="#263238" stroke-miterlimit="10" stroke-linecap="round"/>
<path d="M603 284.66C602.09 287.36 601 290.57 599.89 294.17" stroke="#263238" stroke-miterlimit="10" stroke-linecap="round"/>
<path d="M606.21 275.46C606.21 275.46 605.32 277.92 603.88 282.12" stroke="#263238" stroke-miterlimit="10" stroke-linecap="round"/>
<path d="M562 330.11C568.36 332.52 577.06 339.25 580.08 348.11" stroke="#263238" stroke-miterlimit="10" stroke-linecap="round"/>
<path d="M550.22 327.72C554.245 327.919 558.216 328.724 562 330.11" stroke="#263238" stroke-miterlimit="10" stroke-linecap="round"/>
<path d="M542.61 327.91C542.61 327.91 543.74 327.75 545.61 327.67" stroke="#263238" stroke-miterlimit="10" stroke-linecap="round"/>
<path d="M562.61 372.09C554.01 376.09 545.61 376.33 543.88 372.59C542.15 368.85 547.68 362.59 556.28 358.59C564.88 354.59 573.28 354.36 575.02 358.1C576.76 361.84 571.21 368.08 562.61 372.09Z" fill="#407BFF" stroke="#263238" stroke-miterlimit="10"/>
<path d="M562.34 361.2C565.751 359.09 569.459 357.502 573.34 356.49C574.233 355.944 575.264 355.664 576.311 355.684C577.358 355.703 578.378 356.021 579.25 356.6C580.42 357.37 580.03 363.19 580.03 363.19V393.43" stroke="#263238" stroke-miterlimit="10" stroke-linecap="round"/>
<path d="M556.18 365.69C556.18 365.69 557.02 364.91 558.52 363.79" stroke="#263238" stroke-miterlimit="10" stroke-linecap="round"/>
<path d="M624.33 336.84C633.69 335.25 640.72 330.66 640.03 326.59C639.34 322.52 631.19 320.5 621.84 322.09C612.49 323.68 605.45 328.26 606.14 332.33C606.83 336.4 615 338.42 624.33 336.84Z" fill="#407BFF" stroke="#263238" stroke-miterlimit="10"/>
<path d="M606.81 330C605.672 330.42 604.56 330.907 603.48 331.46C599.688 333.452 596.518 336.449 594.316 340.123C592.115 343.798 590.968 348.007 591 352.29V392.29" stroke="#263238" stroke-miterlimit="10" stroke-linecap="round"/>
<path d="M619.35 327.67C615.074 327.788 610.843 328.574 606.81 330" stroke="#263238" stroke-miterlimit="10" stroke-linecap="round"/>
<path d="M626 327.91C626 327.91 625.26 327.8 624 327.72" stroke="#263238" stroke-miterlimit="10" stroke-linecap="round"/>
<path d="M633.572 366.344C635.635 362.764 630.643 356.022 622.423 351.283C614.203 346.545 605.866 345.605 603.803 349.184C601.74 352.763 606.732 359.506 614.952 364.244C623.172 368.983 631.509 369.923 633.572 366.344Z" fill="#407BFF" stroke="#263238" stroke-miterlimit="10"/>
<path d="M616.94 354C613.562 351.373 609.793 349.291 605.77 347.83C605.77 347.83 595.57 346.15 593.24 352.74" stroke="#263238" stroke-miterlimit="10" stroke-linecap="round"/>
<path d="M621.9 358.39C621.9 358.39 621.39 357.83 620.45 356.95" stroke="#263238" stroke-miterlimit="10" stroke-linecap="round"/>
<path d="M594.79 353.11C594.79 353.11 582.79 350.78 582.79 358.93C582.79 367.08 591.32 373.66 594.79 382.93C598.26 392.2 604.87 392.62 608.36 383.32C611.85 374.02 606.81 357 594.79 353.11Z" fill="#407BFF" stroke="#263238" stroke-miterlimit="10"/>
<path d="M586.65 353.5C586.65 353.5 597.12 357.76 600.22 371.33L586.65 353.5Z" fill="#407BFF"/>
<path d="M586.65 353.5C586.65 353.5 597.12 357.76 600.22 371.33" stroke="#263238" stroke-miterlimit="10"/>
<path d="M587.43 371.33V393.43" stroke="#263238" stroke-miterlimit="10" stroke-linecap="round"/>
<path d="M606.68 436.46C609.552 427.308 611.008 417.772 611 408.18C611.013 402.369 610.43 396.572 609.26 390.88H560.26C559.09 396.572 558.507 402.369 558.52 408.18C558.521 417.773 559.988 427.31 562.87 436.46H606.68Z" fill="#263238"/>
<path d="M559.06 399C558.92 400.33 558.82 401.68 558.74 403H610.87C610.79 401.64 610.69 400.29 610.55 399H559.06Z" fill="#7A7A7A"/>
<path d="M610.32 419.63C610.48 418.29 610.62 416.94 610.73 415.63H558.88C558.99 416.98 559.13 418.33 559.29 419.63H610.32Z" fill="#7A7A7A"/>
<path d="M564.91 408.4C564.932 408.821 564.827 409.24 564.609 409.601C564.391 409.962 564.07 410.249 563.687 410.426C563.303 410.603 562.876 410.661 562.46 410.592C562.044 410.523 561.658 410.332 561.351 410.041C561.045 409.751 560.833 409.376 560.742 408.964C560.652 408.552 560.686 408.122 560.842 407.73C560.998 407.338 561.268 407.002 561.617 406.765C561.966 406.528 562.378 406.401 562.8 406.4C563.344 406.389 563.87 406.593 564.265 406.967C564.66 407.342 564.892 407.856 564.91 408.4Z" fill="#8C8C8C"/>
<path d="M575.46 408.4C575.482 408.821 575.377 409.24 575.159 409.601C574.941 409.962 574.62 410.249 574.237 410.426C573.853 410.603 573.426 410.661 573.01 410.592C572.594 410.523 572.207 410.332 571.901 410.041C571.595 409.751 571.383 409.376 571.292 408.964C571.201 408.552 571.236 408.122 571.392 407.73C571.548 407.338 571.818 407.002 572.167 406.765C572.516 406.528 572.928 406.401 573.35 406.4C573.894 406.389 574.42 406.593 574.815 406.967C575.21 407.342 575.442 407.856 575.46 408.4Z" fill="#8C8C8C"/>
<path d="M586 408.4C586.022 408.821 585.917 409.24 585.699 409.601C585.481 409.962 585.16 410.249 584.777 410.426C584.394 410.603 583.966 410.661 583.55 410.592C583.134 410.523 582.748 410.332 582.441 410.041C582.135 409.751 581.923 409.376 581.832 408.964C581.741 408.552 581.776 408.122 581.932 407.73C582.088 407.338 582.358 407.002 582.707 406.765C583.056 406.528 583.468 406.401 583.89 406.4C584.434 406.389 584.96 406.593 585.355 406.967C585.75 407.342 585.982 407.856 586 408.4Z" fill="#8C8C8C"/>
<path d="M596.56 408.4C596.582 408.821 596.477 409.24 596.259 409.601C596.041 409.962 595.72 410.249 595.337 410.426C594.954 410.603 594.526 410.661 594.11 410.592C593.694 410.523 593.308 410.332 593.001 410.041C592.695 409.751 592.483 409.376 592.392 408.964C592.302 408.552 592.336 408.122 592.492 407.73C592.648 407.338 592.918 407.002 593.267 406.765C593.616 406.528 594.028 406.401 594.45 406.4C594.994 406.389 595.52 406.593 595.915 406.967C596.31 407.342 596.542 407.856 596.56 408.4Z" fill="#8C8C8C"/>
<path d="M607.11 408.4C607.132 408.821 607.027 409.24 606.809 409.601C606.591 409.962 606.27 410.249 605.887 410.426C605.504 410.603 605.076 410.661 604.66 410.592C604.244 410.523 603.858 410.332 603.551 410.041C603.245 409.751 603.033 409.376 602.942 408.964C602.852 408.552 602.886 408.122 603.042 407.73C603.198 407.338 603.468 407.002 603.817 406.765C604.166 406.528 604.578 406.401 605 406.4C605.544 406.389 606.07 406.593 606.465 406.967C606.86 407.342 607.092 407.856 607.11 408.4Z" fill="#8C8C8C"/>
<path d="M426.68 56.87V242.87H494.73V56.87H426.68ZM491.3 61V88.45H463V61H491.3ZM458.75 61V88.45H430.11V61H458.75ZM430.11 92.81H458.75V120.05H430.11V92.81ZM491.3 238.73H430.11V124.73H491.3V238.73ZM463 120.05V92.81H491.3V120.05H463Z" stroke="#263238" stroke-linecap="round" stroke-linejoin="round"/>
<path d="M494.46 56.87V242.87H562.51V56.87H494.46ZM559.08 61V88.45H530.76V61H559.08ZM526.53 61V88.45H497.89V61H526.53ZM497.89 92.81H526.53V120.05H497.89V92.81ZM559.08 238.73H497.89V124.73H559.08V238.73ZM530.76 120.05V92.81H559.08V120.05H530.76Z" stroke="#263238" stroke-linecap="round" stroke-linejoin="round"/>
<path d="M476.07 155.64L458.99 174.52" stroke="#263238" stroke-linecap="round" stroke-linejoin="round"/>
<path d="M480.31 150.96L477.59 153.96" stroke="#263238" stroke-linecap="round" stroke-linejoin="round"/>
<path d="M440.41 188.29L436.91 191.94" stroke="#263238" stroke-linecap="round" stroke-linejoin="round"/>
<path d="M463.1 164.62L443.03 185.56" stroke="#263238" stroke-linecap="round" stroke-linejoin="round"/>
<path d="M544.9 161.41L527.82 180.29" stroke="#263238" stroke-linecap="round" stroke-linejoin="round"/>
<path d="M549.14 156.72L546.42 159.72" stroke="#263238" stroke-linecap="round" stroke-linejoin="round"/>
<path d="M509.25 194.05L505.75 197.7" stroke="#263238" stroke-linecap="round" stroke-linejoin="round"/>
<path d="M531.93 170.38L511.86 191.32" stroke="#263238" stroke-linecap="round" stroke-linejoin="round"/>
<path d="M571.6 56.87V242.87H639.6V56.87H571.6ZM636.22 61V88.45H607.9V61H636.22ZM603.67 61V88.45H575V61H603.67ZM575 92.81H603.64V120.05H575V92.81ZM636.19 238.73H575V124.73H636.19V238.73ZM607.9 120.05V92.81H636.22V120.05H607.9Z" stroke="#263238" stroke-linecap="round" stroke-linejoin="round"/>
<path d="M639.38 56.87V242.87H707.38V56.87H639.38ZM704 61V88.45H675.68V61H704ZM671.45 61V88.45H642.81V61H671.45ZM642.81 92.81H671.45V120.05H642.81V92.81ZM704 238.73H642.81V124.73H704V238.73ZM675.68 120.05V92.81H704V120.05H675.68Z" stroke="#263238" stroke-linecap="round" stroke-linejoin="round"/>
<path d="M620.99 155.64L603.91 174.52" stroke="#263238" stroke-linecap="round" stroke-linejoin="round"/>
<path d="M625.23 150.96L622.51 153.96" stroke="#263238" stroke-linecap="round" stroke-linejoin="round"/>
<path d="M585.33 188.29L581.83 191.94" stroke="#263238" stroke-linecap="round" stroke-linejoin="round"/>
<path d="M608.02 164.62L587.95 185.56" stroke="#263238" stroke-linecap="round" stroke-linejoin="round"/>
<path d="M689.82 161.41L672.74 180.29" stroke="#263238" stroke-linecap="round" stroke-linejoin="round"/>
<path d="M694.06 156.72L691.34 159.72" stroke="#263238" stroke-linecap="round" stroke-linejoin="round"/>
<path d="M654.17 194.05L650.67 197.7" stroke="#263238" stroke-linecap="round" stroke-linejoin="round"/>
<path d="M676.85 170.38L656.78 191.32" stroke="#263238" stroke-linecap="round" stroke-linejoin="round"/>
<path d="M376.955 151.562C390.35 138.167 390.35 116.449 376.955 103.054C363.56 89.6595 341.842 89.6595 328.448 103.054C315.053 116.449 315.053 138.167 328.447 151.562C341.842 164.957 363.56 164.957 376.955 151.562Z" fill="#263238" stroke="#263238" stroke-linejoin="round"/>
<path d="M376.774 147.405C387.886 134.105 386.113 114.316 372.814 103.204C359.514 92.0916 339.725 93.8647 328.613 107.164C317.501 120.463 319.274 140.253 332.573 151.365C345.873 162.477 365.662 160.704 376.774 147.405Z" fill="white" stroke="#263238" stroke-linejoin="round"/>
<path d="M355.62 127.3C355.62 126.722 355.449 126.158 355.128 125.678C354.807 125.198 354.351 124.823 353.817 124.602C353.284 124.381 352.697 124.323 352.13 124.436C351.564 124.549 351.044 124.827 350.635 125.235C350.227 125.644 349.949 126.164 349.836 126.73C349.723 127.297 349.781 127.884 350.002 128.417C350.223 128.951 350.598 129.407 351.078 129.728C351.558 130.049 352.123 130.22 352.7 130.22C353.474 130.22 354.217 129.912 354.765 129.365C355.312 128.817 355.62 128.074 355.62 127.3Z" fill="#263238" stroke="#263238" stroke-linejoin="round"/>
<path d="M355.09 129.47L359.66 135.24" stroke="#263238" stroke-linejoin="round"/>
<path d="M355.09 125.15L368.07 106.63" stroke="#263238" stroke-linejoin="round"/>
<path d="M658.22 431.86H35" stroke="#263238" stroke-linejoin="round"/>
<path d="M690 431.86H666.42" stroke="#263238" stroke-linejoin="round"/>
<path d="M305.32 436.69H300.92L300.4 354.5H305.84L305.32 436.69Z" fill="white" stroke="#263238" stroke-linejoin="round"/>
<path d="M300.42 357.98H305.82L305.84 354.5H300.4L300.42 357.98Z" fill="#263238" stroke="#263238" stroke-miterlimit="10"/>
<path d="M311.91 436.69H307.5L306.98 354.5H312.43L311.91 436.69Z" fill="#263238" stroke="#263238" stroke-miterlimit="10"/>
<path d="M389.22 436.69H384.82L384.3 354.5H389.74L389.22 436.69Z" fill="white" stroke="#263238" stroke-linejoin="round"/>
<path d="M384.32 357.98H389.72L389.74 354.5H384.3L384.32 357.98Z" fill="#263238" stroke="#263238" stroke-miterlimit="10"/>
<path d="M382.06 436.69H377.66L377.14 354.5H382.58L382.06 436.69Z" fill="#263238" stroke="#263238" stroke-miterlimit="10"/>
<path d="M391.89 348.77H299.54L311.26 330.74H380.16L391.89 348.77Z" fill="white" stroke="#263238" stroke-linejoin="round"/>
<path d="M392.01 348.77H299.54V354.87H392.01V348.77Z" fill="white" stroke="#263238" stroke-linejoin="round"/>
<path d="M317.52 263.73H373.62C375.278 263.73 376.867 264.388 378.039 265.561C379.212 266.733 379.87 268.322 379.87 269.98V330.74H311.27V270C311.267 269.178 311.427 268.363 311.74 267.602C312.053 266.841 312.513 266.15 313.094 265.568C313.674 264.985 314.364 264.523 315.124 264.208C315.883 263.892 316.698 263.73 317.52 263.73Z" fill="white" stroke="#263238" stroke-linejoin="round"/>
<path d="M426.9 436.69H422.5L421.98 354.5H427.42L426.9 436.69Z" fill="white" stroke="#263238" stroke-linejoin="round"/>
<path d="M422 357.98H427.4L427.42 354.5H421.98L422 357.98Z" fill="#263238" stroke="#263238" stroke-miterlimit="10"/>
<path d="M433.49 436.69H429.08L428.56 354.5H434L433.49 436.69Z" fill="#263238" stroke="#263238" stroke-miterlimit="10"/>
<path d="M510.8 436.69H506.4L505.88 354.5H511.32L510.8 436.69Z" fill="white" stroke="#263238" stroke-linejoin="round"/>
<path d="M505.9 357.98H511.3L511.32 354.5H505.88L505.9 357.98Z" fill="#263238" stroke="#263238" stroke-miterlimit="10"/>
<path d="M503.64 436.69H499.24L498.72 354.5H504.16L503.64 436.69Z" fill="#263238" stroke="#263238" stroke-miterlimit="10"/>
<path d="M513.47 348.77H421.12L432.85 330.74H501.74L513.47 348.77Z" fill="white" stroke="#263238" stroke-linejoin="round"/>
<path d="M513.59 348.77H421.12V354.87H513.59V348.77Z" fill="white" stroke="#263238" stroke-linejoin="round"/>
<path d="M439.1 263.73H495.2C496.858 263.73 498.447 264.388 499.619 265.561C500.792 266.733 501.45 268.322 501.45 269.98V330.74H432.85V270C432.847 269.178 433.007 268.363 433.32 267.602C433.633 266.841 434.093 266.15 434.673 265.568C435.254 264.985 435.944 264.523 436.704 264.208C437.463 263.892 438.278 263.73 439.1 263.73Z" fill="white" stroke="#263238" stroke-linejoin="round"/>
<path d="M444.35 420.71C442.753 423.2 441.297 425.777 439.99 428.43C439.11 430.61 432.99 436.29 431.54 439.06C430.09 441.83 431.97 444.16 438.82 444.89C445.67 445.62 448.14 440.95 449.74 438.89C451.34 436.83 451.35 433.89 453.24 432.63C455.13 431.37 458.77 427.83 459.06 424.33C459.258 422.32 459.113 420.291 458.63 418.33L444.35 420.71Z" fill="white" stroke="#263238" stroke-miterlimit="10"/>
<path d="M459.06 424.35C459.196 422.793 459.142 421.224 458.9 419.68C458.652 420.789 458.465 421.911 458.34 423.04C457.75 428.14 451.64 430.04 450.34 432.94C449.04 435.84 447.13 441.68 441.74 442.85C437.74 443.71 433.24 441.48 431.14 440.25C430.76 442.48 432.99 444.25 438.83 444.89C445.68 445.61 448.15 440.95 449.75 438.89C451.35 436.83 451.36 433.89 453.25 432.63C455.14 431.37 458.77 427.85 459.06 424.35Z" fill="white" stroke="#263238" stroke-miterlimit="10"/>
<path d="M492.9 420.71C494.501 423.199 495.96 425.776 497.27 428.43C498.14 430.61 504.27 436.29 505.72 439.06C507.17 441.83 505.28 444.16 498.43 444.89C491.58 445.62 489.11 440.95 487.51 438.89C485.91 436.83 485.91 433.89 484.02 432.63C482.13 431.37 478.48 427.83 478.19 424.33C477.998 422.319 478.147 420.291 478.63 418.33L492.9 420.71Z" fill="white" stroke="#263238" stroke-miterlimit="10"/>
<path d="M478.19 424.35C478.059 422.792 478.113 421.225 478.35 419.68C478.606 420.788 478.797 421.91 478.92 423.04C479.5 428.14 485.62 430.04 486.92 432.94C488.22 435.84 490.12 441.68 495.51 442.85C499.51 443.71 504.02 441.48 506.12 440.25C506.49 442.48 504.26 444.25 498.42 444.89C491.58 445.61 489.1 440.95 487.5 438.89C485.9 436.83 485.9 433.89 484.01 432.63C482.12 431.37 478.48 427.85 478.19 424.35Z" fill="white" stroke="#263238" stroke-miterlimit="10"/>
<path d="M515.09 347.74C515.09 342.79 501.44 323.94 501.44 323.94L496.49 312.27L471.29 314.64H465.5L440.3 312.27L435.35 323.94C435.35 323.94 421.7 342.79 421.7 347.74C421.7 352.69 422.29 354.27 422.29 354.27L444.29 414.27L442.51 418.42L443.3 421.59C443.3 421.59 446.07 423.96 451.41 423.96C454.539 423.987 457.568 422.862 459.92 420.8C459.92 420.8 460.51 414.27 460.51 411.89C460.51 409.51 456.16 398.04 456.16 395.67C456.16 393.3 452 349.91 452 349.91L467.43 339H469.36L484.82 349.93C484.82 349.93 480.66 393.27 480.66 395.64C480.66 398.01 476.31 409.49 476.31 411.86C476.31 414.23 476.9 420.77 476.9 420.77C479.252 422.832 482.282 423.957 485.41 423.93C490.75 423.93 493.52 421.56 493.52 421.56L494.32 418.39L492.53 414.24L514.53 354.24C514.53 354.24 515.09 352.68 515.09 347.74Z" fill="#263238" stroke="#263238" stroke-miterlimit="10"/>
<path d="M471 336.41C471 336.41 478.91 324.54 488.61 321.17" stroke="#7D7D7D" stroke-miterlimit="10"/>
<path d="M479.48 328.89C479.48 328.89 486.8 323.15 493.92 322.36" stroke="#7D7D7D" stroke-miterlimit="10"/>
<path d="M454.55 325.13C454.55 325.13 461.08 329.88 464.04 334.82" stroke="#7D7D7D" stroke-miterlimit="10"/>
<path d="M454 237.28L429.86 246.38L435 290.5C435 290.5 436.78 312.66 438.56 313.5C440.34 314.34 463.49 318.05 467.84 317.85C472.19 317.65 495.34 317.06 497.92 312.9C500.5 308.74 507.61 248.2 507.41 246.62C507.21 245.04 477.14 234.55 477.14 234.55L454 237.28Z" fill="#407BFF" stroke="#263238" stroke-linejoin="round"/>
<path d="M459.1 253.7L466.42 262.41L474.53 253.9C474.53 253.9 479.87 239.65 479.67 238.07C479.47 236.49 475.72 233.72 475.72 233.72L462.06 233.32L452.57 237.68L459.1 253.7Z" fill="white" stroke="#263238" stroke-linejoin="round"/>
<path d="M457.12 231L452 236.69L459.13 253.69L466.05 246.77L474.56 253.89C474.56 253.89 478.71 244.2 479.7 241.62C480.345 239.64 480.682 237.572 480.7 235.49L475.32 230L457.12 231Z" fill="white" stroke="#263238" stroke-linejoin="round"/>
<path d="M455.14 228.38L456.13 234.91L466.02 246.78L477.1 234.51L477.69 227.19L465.43 233.13L455.14 228.38Z" fill="white" stroke="#263238" stroke-linejoin="round"/>
<path d="M449.4 208.79C449.4 208.79 447.4 209.18 447.62 212.55C447.84 215.92 452.76 219.87 452.76 219.87L451.18 207.8L449.4 208.79Z" fill="white" stroke="#263238" stroke-linejoin="round"/>
<path d="M450.79 206.22C450.79 206.22 452.57 226 453.79 227.98C455.01 229.96 462.1 237.68 465.27 238.07C466.95 238.28 477.93 230.75 478.72 227.59C479.51 224.43 480.51 218.29 480.51 218.29C480.51 218.29 482.88 218.48 484.26 212.94C485.64 207.4 483.47 206.41 482.48 206.41H480.9C480.9 206.41 480.51 198.3 479.9 196.72C479.29 195.14 452.99 198.9 450.62 200.87C448.25 202.84 450.79 206.22 450.79 206.22Z" fill="white" stroke="#263238" stroke-linejoin="round"/>
<path d="M472.85 217.89C472.85 218.82 472.45 219.57 471.96 219.57C471.47 219.57 471.07 218.82 471.07 217.89C471.07 216.96 471.47 216.21 471.96 216.21C472.45 216.21 472.85 217 472.85 217.89Z" fill="#263238"/>
<path d="M459.39 217.4C459.39 218.32 458.99 219.08 458.5 219.08C458.01 219.08 457.61 218.32 457.61 217.4C457.61 216.48 458.01 215.71 458.5 215.71C458.99 215.71 459.39 216.47 459.39 217.4Z" fill="#263238"/>
<path d="M463.25 223.23C463.25 223.23 463.05 225.01 464.25 225.61C464.653 225.777 465.09 225.845 465.525 225.808C465.96 225.771 466.379 225.63 466.748 225.396C467.117 225.163 467.424 224.844 467.644 224.467C467.863 224.09 467.989 223.666 468.01 223.23" stroke="#263238" stroke-linejoin="round"/>
<path d="M463.84 229.37H466.61" stroke="#263238" stroke-linejoin="round"/>
<path d="M454.35 213.34H461.08" stroke="#263238" stroke-width="2" stroke-linecap="round" stroke-linejoin="round"/>
<path d="M468 212.75C468 212.75 472.35 210.17 474.73 212.75" stroke="#263238" stroke-width="2" stroke-linecap="round" stroke-linejoin="round"/>
<path d="M455.53 219.28L458.9 220.07" stroke="#263238" stroke-linejoin="round"/>
<path d="M475.12 218.88L471.36 220.66" stroke="#263238" stroke-linejoin="round"/>
<path d="M481.06 189.2C479.73 186.7 466.81 181.29 459.06 185.64C459.06 185.64 448.97 189.2 445.6 197.31C442.97 203.66 443.99 206.73 448.44 207.48L451.74 216.9L451.34 214.13L450.86 207.67C451.5 207.67 452.18 207.67 452.92 207.6C461.04 207.01 468.16 205.23 471.72 203.6C473.712 202.767 475.525 201.559 477.06 200.04C476.956 201.952 476.956 203.868 477.06 205.78C477.26 207.36 479.44 209.14 479.44 209.14L479.63 215.28L480.82 215.08L481.61 208.16L482.61 205.39C483.34 206.4 485.09 196.77 481.06 189.2Z" fill="#263238" stroke="#263238" stroke-linejoin="round"/>
<path d="M489.57 263.6L497.68 273.69" stroke="#263238" stroke-linejoin="round"/>
<path d="M495.5 260.83L498.67 284.17L468.2 288.72L468.4 300.99L473.34 301.39C475.648 303.076 478.404 304.04 481.26 304.16C485.61 304.16 507.97 301.39 511.92 300.4C515.87 299.41 518.26 298.4 518.65 294.66C519.04 290.92 510.54 251.33 509.95 248.76C509.36 246.19 499.66 243.22 499.66 243.22" fill="#407BFF"/>
<path d="M495.5 260.83L498.67 284.17L468.2 288.72L468.4 300.99L473.34 301.39C475.648 303.076 478.404 304.04 481.26 304.16C485.61 304.16 507.97 301.39 511.92 300.4C515.87 299.41 518.26 298.4 518.65 294.66C519.04 290.92 510.54 251.33 509.95 248.76C509.36 246.19 499.66 243.22 499.66 243.22" stroke="#263238" stroke-linejoin="round"/>
<path d="M507.77 286.35C504.41 283.97 498.67 284.17 498.67 284.17C498.67 284.17 503.61 282 507.57 283.38" stroke="#263238" stroke-linejoin="round"/>
<path d="M473.34 288.92L473.74 300.4" stroke="#263238" stroke-linejoin="round"/>
<path d="M468.2 288.72L458.31 288.13L446.24 282.19L444.06 283.38C444.06 283.38 439.51 291.89 440.5 292.48C441.49 293.07 442.87 294.86 443.66 294.86C444.45 294.86 446.24 293.47 446.24 293.47C446.24 293.47 450.98 298.22 453.95 298.22C455.794 298.201 457.613 297.796 459.29 297.03L468.59 298.22L468.2 288.72Z" fill="white" stroke="#263238" stroke-linejoin="round"/>
<path d="M446.24 293.47L443.66 291.3L443.07 292.29" stroke="#263238" stroke-linejoin="round"/>
<path d="M463.25 287.73H460.48V297.82H463.25V287.73Z" fill="#263238" stroke="#263238" stroke-miterlimit="10"/>
<path d="M461.87 290.11C463.4 290.11 464.64 289.403 464.64 288.53C464.64 287.657 463.4 286.95 461.87 286.95C460.34 286.95 459.1 287.657 459.1 288.53C459.1 289.403 460.34 290.11 461.87 290.11Z" fill="white" stroke="#263238" stroke-linejoin="round"/>
<path d="M429.81 246.38C429.81 246.38 419.92 301.78 419.92 305.15C419.92 308.52 434.36 323 434.36 323L440.89 316.67L436.54 297.67L429.81 246.38Z" fill="#407BFF" stroke="#263238" stroke-linejoin="round"/>
<path d="M425.86 299.8C425.86 299.8 431.59 296.64 435.75 297.23" stroke="#263238" stroke-linejoin="round"/>
<path d="M423.09 299.41C423.09 299.41 428.03 295.41 431.79 295.41" stroke="#263238" stroke-linejoin="round"/>
<path d="M431.4 320C431.4 320 431.2 314.06 440.1 313.86" stroke="#263238" stroke-linejoin="round"/>
<path d="M440.89 316.62L449.54 319.48C450.318 320.914 450.986 322.405 451.54 323.94C452.25 326.09 453.33 328.23 453.33 328.77C453.33 329.31 453.15 330.02 452.43 330.02C451.71 330.02 448.68 327.34 448.68 327.34L446.9 326.44C446.9 326.44 449.22 329.66 449.75 329.84C450.674 330.319 451.569 330.854 452.43 331.44C452.43 331.44 457.08 329.3 457.08 331.09C457.08 332.88 450.29 336.8 450.29 336.8C450.29 336.8 444.57 335.73 443.5 335.02C442.43 334.31 434.36 323 434.36 323L440.89 316.62Z" fill="white" stroke="#263238" stroke-linejoin="round"/>
<path d="M267.56 64H104.9V431.5H267.56V64Z" fill="white" stroke="#263238" stroke-linejoin="round"/>
<path d="M183.21 75.05H111.92V153.03H183.21V75.05Z" fill="white" stroke="#263238" stroke-linejoin="round"/>
<path d="M174.72 84.35H120.43V143.73H174.72V84.35Z" fill="white" stroke="#263238" stroke-linejoin="round"/>
<path d="M120.43 84.35L111.92 75.05" stroke="#263238" stroke-linejoin="round"/>
<path d="M120.43 143.73L111.92 153.03" stroke="#263238" stroke-linejoin="round"/>
<path d="M174.71 84.35L183.22 75.05" stroke="#263238" stroke-linejoin="round"/>
<path d="M174.71 143.73L183.22 153.03" stroke="#263238" stroke-linejoin="round"/>
<path d="M260.23 75.05H188.94V153.03H260.23V75.05Z" fill="white" stroke="#263238" stroke-linejoin="round"/>
<path d="M251.73 84.35H197.44V143.73H251.73V84.35Z" fill="white" stroke="#263238" stroke-linejoin="round"/>
<path d="M197.44 84.35L188.94 75.05" stroke="#263238" stroke-linejoin="round"/>
<path d="M197.44 143.73L188.94 153.03" stroke="#263238" stroke-linejoin="round"/>
<path d="M251.73 84.35L260.23 75.05" stroke="#263238" stroke-linejoin="round"/>
<path d="M251.73 143.73L260.23 153.03" stroke="#263238" stroke-linejoin="round"/>
<path d="M183.21 161.06H111.92V239.04H183.21V161.06Z" fill="white" stroke="#263238" stroke-linejoin="round"/>
<path d="M174.72 170.36H120.43V229.74H174.72V170.36Z" fill="white" stroke="#263238" stroke-linejoin="round"/>
<path d="M120.43 170.36L111.92 161.06" stroke="#263238" stroke-linejoin="round"/>
<path d="M120.43 229.75L111.92 239.05" stroke="#263238" stroke-linejoin="round"/>
<path d="M174.71 170.36L183.22 161.06" stroke="#263238" stroke-linejoin="round"/>
<path d="M174.71 229.75L183.22 239.05" stroke="#263238" stroke-linejoin="round"/>
<path d="M260.23 161.06H188.94V239.04H260.23V161.06Z" fill="white" stroke="#263238" stroke-linejoin="round"/>
<path d="M251.73 170.36H197.44V229.74H251.73V170.36Z" fill="white" stroke="#263238" stroke-linejoin="round"/>
<path d="M197.44 170.36L188.94 161.06" stroke="#263238" stroke-linejoin="round"/>
<path d="M197.44 229.75L188.94 239.05" stroke="#263238" stroke-linejoin="round"/>
<path d="M251.73 170.36L260.23 161.06" stroke="#263238" stroke-linejoin="round"/>
<path d="M251.73 229.75L260.23 239.05" stroke="#263238" stroke-linejoin="round"/>
<path d="M183.21 256.12H111.92V334.1H183.21V256.12Z" fill="white" stroke="#263238" stroke-linejoin="round"/>
<path d="M174.72 265.42H120.43V324.8H174.72V265.42Z" fill="white" stroke="#263238" stroke-linejoin="round"/>
<path d="M120.43 265.42L111.92 256.12" stroke="#263238" stroke-linejoin="round"/>
<path d="M120.43 324.8L111.92 334.1" stroke="#263238" stroke-linejoin="round"/>
<path d="M174.71 265.42L183.22 256.12" stroke="#263238" stroke-linejoin="round"/>
<path d="M174.71 324.8L183.22 334.1" stroke="#263238" stroke-linejoin="round"/>
<path d="M260.23 256.12H188.94V334.1H260.23V256.12Z" fill="white" stroke="#263238" stroke-linejoin="round"/>
<path d="M251.73 265.42H197.44V324.8H251.73V265.42Z" fill="white" stroke="#263238" stroke-linejoin="round"/>
<path d="M197.44 265.42L188.94 256.12" stroke="#263238" stroke-linejoin="round"/>
<path d="M197.44 324.8L188.94 334.1" stroke="#263238" stroke-linejoin="round"/>
<path d="M251.73 265.42L260.23 256.12" stroke="#263238" stroke-linejoin="round"/>
<path d="M251.73 324.8L260.23 334.1" stroke="#263238" stroke-linejoin="round"/>
<path d="M183.21 342.14H111.92V420.12H183.21V342.14Z" fill="white" stroke="#263238" stroke-linejoin="round"/>
<path d="M174.72 351.44H120.43V410.82H174.72V351.44Z" fill="white" stroke="#263238" stroke-linejoin="round"/>
<path d="M120.43 351.44L111.92 342.14" stroke="#263238" stroke-linejoin="round"/>
<path d="M120.43 410.82L111.92 420.12" stroke="#263238" stroke-linejoin="round"/>
<path d="M174.71 351.44L183.22 342.14" stroke="#263238" stroke-linejoin="round"/>
<path d="M174.71 410.82L183.22 420.12" stroke="#263238" stroke-linejoin="round"/>
<path d="M260.23 342.14H188.94V420.12H260.23V342.14Z" fill="white" stroke="#263238" stroke-linejoin="round"/>
<path d="M251.73 351.44H197.44V410.82H251.73V351.44Z" fill="white" stroke="#263238" stroke-linejoin="round"/>
<path d="M197.44 351.44L188.94 342.14" stroke="#263238" stroke-linejoin="round"/>
<path d="M197.44 410.82L188.94 420.12" stroke="#263238" stroke-linejoin="round"/>
<path d="M251.73 351.44L260.23 342.14" stroke="#263238" stroke-linejoin="round"/>
<path d="M251.73 410.82L260.23 420.12" stroke="#263238" stroke-linejoin="round"/>
<path d="M256.367 254.67C260.379 254.017 263.103 250.236 262.45 246.224C261.797 242.211 258.016 239.488 254.004 240.141C249.992 240.794 247.268 244.575 247.921 248.587C248.574 252.599 252.355 255.323 256.367 254.67Z" fill="white" stroke="#263238" stroke-linejoin="round"/>
<path d="M257.85 247.41C257.85 246.879 257.693 246.361 257.398 245.92C257.103 245.479 256.684 245.136 256.193 244.933C255.703 244.73 255.164 244.678 254.643 244.782C254.123 244.886 253.646 245.143 253.271 245.518C252.897 245.894 252.643 246.373 252.54 246.893C252.438 247.414 252.492 247.953 252.697 248.442C252.901 248.932 253.246 249.35 253.688 249.643C254.13 249.936 254.65 250.092 255.18 250.09C255.889 250.087 256.568 249.804 257.069 249.301C257.569 248.799 257.85 248.119 257.85 247.41Z" fill="white" stroke="#263238" stroke-linejoin="round"/>
</svg>
