<svg width="531" height="547" viewBox="0 0 531 547" fill="none" xmlns="http://www.w3.org/2000/svg">
<path opacity="0.2" d="M272.257 291.934V277.63L255.044 265.703V251.398L237.83 239.459V225.166L220.626 213.239L146.246 261.924L165.566 275.242V289.547L182.779 301.463V315.779L199.993 327.695V342.011L275.397 472.776C350.067 457.649 407.069 412.024 431.121 353.057C433.903 346.242 436.38 339.375 438.55 332.459L272.257 291.934Z" fill="#E6E6DD"/>
<path opacity="0.15" d="M166.232 13.0733C115.905 47.8483 75.1021 141.045 75.1021 221.283C75.1021 268.96 89.5144 301.335 111.809 312.463L121.015 306.088L211.527 243.388L220.964 236.851C243.095 195.063 257.401 142.958 257.401 95.4322C257.362 15.2177 216.569 -21.667 166.232 13.0733Z" fill="#E6E6DD"/>
<path opacity="0.15" d="M166.232 36.2797C123.942 65.4908 89.6592 143.804 89.6592 211.233C89.6592 278.662 123.942 309.658 166.232 280.47C208.522 251.282 242.814 172.934 242.814 105.505C242.814 38.0765 208.532 7.08029 166.232 36.2797Z" fill="#E6E6DD"/>
<path opacity="0.15" d="M166.232 52.6356C129.737 77.9287 100.15 145.763 100.15 204.151C100.15 262.538 129.737 289.396 166.232 264.114C202.726 238.833 232.314 170.987 232.314 112.588C232.314 54.1889 202.736 27.331 166.232 52.6356Z" fill="#E6E6DD"/>
<path d="M127.264 206.921C127.264 156.335 152.901 97.565 184.518 75.6451C198.457 66.0009 211.217 65.1083 221.138 71.4606L208.281 62.5349C198.234 55.5799 185.097 56.1595 170.762 66.1052C139.127 88.0251 113.499 146.795 113.499 197.381C113.499 225.074 121.179 244.571 133.321 252.963C135.398 254.389 143.116 259.756 146.265 261.935C134.567 253.23 127.264 233.988 127.264 206.921Z" fill="#E6E6DD"/>
<path opacity="0.3" d="M127.264 206.921C127.264 156.335 152.901 97.565 184.518 75.6451C198.457 66.0009 211.217 65.1083 221.138 71.4606L208.281 62.5349C198.234 55.5799 185.097 56.1595 170.762 66.1052C139.127 88.0251 113.499 146.795 113.499 197.381C113.499 225.074 121.179 244.571 133.321 252.963C135.398 254.389 143.116 259.756 146.265 261.935C134.567 253.23 127.264 233.988 127.264 206.921Z" fill="white"/>
<path d="M207.015 86.2516C212.01 94.2499 214.685 106.978 214.086 123.53C212.647 164.101 192.081 212.369 168.164 231.252C160.9 236.99 154.148 239.366 148.333 238.729C155.597 250.32 167.768 251.978 181.929 240.792C205.856 221.909 226.422 173.676 227.861 133.059C228.846 104.798 220.327 87.6774 207.015 86.2516Z" fill="#E6E6DD"/>
<path opacity="0.15" d="M207.015 86.2516C212.01 94.2499 214.685 106.978 214.086 123.53C212.647 164.101 192.081 212.369 168.164 231.252C160.9 236.99 154.148 239.366 148.333 238.729C155.597 250.32 167.768 251.978 181.929 240.792C205.856 221.909 226.422 173.676 227.861 133.059C228.846 104.798 220.327 87.6774 207.015 86.2516Z" fill="black"/>
<path d="M141.851 98.6778L155.616 108.218L156.717 106.444L142.952 96.8811C142.575 97.4955 142.218 98.0403 141.851 98.6778Z" fill="#E6E6DD"/>
<path d="M135.533 153.924L121.72 144.407C121.526 145.045 121.343 145.705 121.159 146.354L134.925 155.894C135.118 155.222 135.292 154.561 135.533 153.924Z" fill="#E6E6DD"/>
<path d="M198.321 58.3273L212.096 67.902C212.656 68.0179 213.217 68.1338 213.767 68.2729L199.992 58.733C199.442 58.5591 198.882 58.4316 198.321 58.3273Z" fill="#E6E6DD"/>
<path d="M129.206 181.941C129.312 181.222 129.428 180.492 129.544 179.773L115.779 170.233C115.653 170.952 115.537 171.671 115.431 172.401L129.206 181.941Z" fill="#E6E6DD"/>
<path d="M155.384 80.1311L169.149 89.6711C169.622 89.1263 170.115 88.5815 170.579 88.0598L156.785 78.5199C156.331 79.0415 155.819 79.5863 155.384 80.1311Z" fill="#E6E6DD"/>
<path d="M129.273 229.629C129.148 228.992 129.032 228.342 128.916 227.693L128.81 227.404L115.112 217.91C115.238 218.652 115.363 219.382 115.508 220.101L129.273 229.629Z" fill="#E6E6DD"/>
<path d="M186.314 58.7561C185.735 58.8952 185.136 59.0807 184.547 59.2545L198.321 68.7945C198.92 68.609 199.519 68.4468 200.108 68.3077L186.314 58.7561Z" fill="#E6E6DD"/>
<path d="M185.377 75.0888L171.612 65.5836C171.323 65.7807 171.042 65.943 170.762 66.14L169.922 66.7544L183.687 76.2943L184.518 75.68L185.377 75.0888Z" fill="#E6E6DD"/>
<path d="M130.182 121.224L143.947 130.764L144.758 128.955L130.993 119.415C130.703 119.995 130.442 120.598 130.182 121.224Z" fill="#E6E6DD"/>
<path d="M135.118 247.828C134.809 247.191 134.519 246.553 134.219 245.892L120.464 236.364C120.754 237.025 121.063 237.662 121.372 238.3L135.118 247.828Z" fill="#E6E6DD"/>
<path d="M113.499 197.567L127.265 207.118V206.921C127.265 206.214 127.265 205.484 127.265 204.765L113.49 195.225C113.49 195.944 113.49 196.674 113.49 197.381L113.499 197.567Z" fill="#E6E6DD"/>
<path d="M184.518 75.6451C152.901 97.565 127.264 156.335 127.264 206.921C127.264 257.507 152.901 280.772 184.518 258.863C216.134 236.955 241.79 178.185 241.79 127.587C241.79 76.9898 216.144 53.7368 184.518 75.6451ZM227.832 133.059C226.393 173.63 205.827 221.897 181.9 240.78C157.973 259.663 139.764 242.055 141.203 201.45C142.643 160.844 163.228 112.611 187.135 93.7281C211.043 74.8453 229.281 92.4531 227.832 133.059Z" fill="#E6E6DD"/>
<g opacity="0.15">
<path d="M172.8 108.995C173.264 108.38 173.718 107.754 174.191 107.151L170.569 88.0599C170.086 88.5816 169.603 89.1148 169.139 89.6596L172.8 108.995Z" fill="black"/>
<path d="M183.677 76.2479V96.7188C184.237 96.1972 184.798 95.6872 185.367 95.2003V75.0771L184.517 75.6451L183.677 76.2479Z" fill="black"/>
<path d="M195.317 88.5815C195.935 88.2917 196.554 88.0251 197.162 87.7932L200.06 68.296C199.471 68.4351 198.872 68.5974 198.273 68.7713L195.317 88.5815Z" fill="black"/>
<path d="M148.641 159.024L149.25 157.1L135.533 153.912C135.34 154.561 135.147 155.211 134.963 155.86L148.641 159.024Z" fill="black"/>
<path d="M155.142 140.93L155.915 139.075L144.748 128.944L143.946 130.764L155.142 140.93Z" fill="black"/>
<path d="M239.443 103.291L227.3 116.958C227.397 117.769 227.484 118.592 227.561 119.45L239.935 105.54C239.752 104.798 239.607 104.033 239.443 103.291Z" fill="black"/>
<path d="M141.618 194.831L127.283 204.753C127.283 205.484 127.283 206.202 127.283 206.921V207.118L141.445 197.311C141.474 196.488 141.551 195.654 141.618 194.831Z" fill="black"/>
<path d="M143.937 178.023C144.082 177.293 144.236 176.562 144.381 175.821L129.534 179.75C129.418 180.469 129.302 181.199 129.196 181.918L143.937 178.023Z" fill="black"/>
<path d="M206.725 86.24C207.314 86.298 207.884 86.3791 208.445 86.495L213.777 68.2149C213.216 68.0758 212.656 67.9483 212.086 67.8324L206.725 86.24Z" fill="black"/>
<path d="M223.572 101.448C223.842 102.132 224.103 102.851 224.354 103.581L234.304 87.5035C234.004 86.8543 233.685 86.2284 233.338 85.614L223.572 101.448Z" fill="black"/>
<path d="M216.54 90.6796C216.994 91.0969 217.438 91.5374 217.873 92.0127L225.369 74.7874C224.915 74.3585 224.461 73.9528 223.987 73.5587L216.54 90.6796Z" fill="black"/>
<path d="M163.227 124.052L164.27 122.163L156.707 106.433L155.606 108.218L163.227 124.052Z" fill="black"/>
<path d="M196.534 225.12C196.08 225.758 195.568 226.372 195.153 226.975L198.775 246.124C199.258 245.602 199.741 245.035 200.205 244.49L196.534 225.12Z" fill="black"/>
<path d="M214.492 192.188C214.24 192.814 213.98 193.428 213.719 194.043L224.914 204.197L225.697 202.354L214.492 192.188Z" fill="black"/>
<path d="M206.319 209.552L205.276 211.453L212.859 227.218C213.226 226.627 213.603 226.059 213.96 225.445L206.319 209.552Z" fill="black"/>
<path d="M220.944 173.653C220.751 174.302 220.568 174.951 220.365 175.589L234.082 178.765C234.275 178.116 234.458 177.467 234.642 176.817L220.944 173.653Z" fill="black"/>
<path d="M225.475 154.422C225.349 155.153 225.224 155.883 225.079 156.602L239.858 152.718C239.964 151.988 240.061 151.269 240.167 150.551L225.475 154.422Z" fill="black"/>
<path d="M241.79 125.455L227.725 135.134C227.725 135.945 227.638 136.756 227.59 137.58L241.79 127.785V127.587C241.79 126.869 241.79 126.162 241.79 125.455Z" fill="black"/>
<path d="M185.367 258.249V237.801C184.807 238.323 184.237 238.833 183.677 239.32V259.443L184.517 258.863C184.798 258.666 185.087 258.446 185.367 258.249Z" fill="black"/>
<path d="M145.009 231.855C144.748 231.148 144.497 230.417 144.256 229.652L134.219 245.881C134.509 246.541 134.818 247.191 135.127 247.816L145.009 231.855Z" fill="black"/>
<path d="M151.897 243.272C151.452 242.832 151.017 242.368 150.592 241.87L143.058 259.165C143.502 259.605 143.956 260.022 144.42 260.428L151.897 243.272Z" fill="black"/>
<path d="M173.399 246.101C172.781 246.379 172.172 246.623 171.564 246.854L168.666 266.294C169.265 266.155 169.864 266.004 170.462 265.83L173.399 246.101Z" fill="black"/>
<path d="M161.759 248.222C161.179 248.153 160.619 248.048 160.059 247.921L154.785 266.12C155.345 266.282 155.905 266.41 156.465 266.525L161.759 248.222Z" fill="black"/>
<path d="M141.589 215.823C141.512 214.989 141.444 214.131 141.387 213.262L128.829 227.322C128.964 228.099 129.099 228.864 129.244 229.641L141.589 215.823Z" fill="black"/>
</g>
<path d="M199.973 342.022L134.538 296.687V253.763L148.313 263.303L165.546 275.254V289.558L182.76 301.474V315.79L199.973 327.706V342.022Z" fill="#E6E6DD"/>
<path d="M148.333 263.326L220.626 213.239L237.83 225.166L165.546 275.254L148.333 263.326Z" fill="#E6E6DD"/>
<path d="M165.546 275.254V289.558L237.83 239.471V225.166L165.546 275.254Z" fill="#37474F"/>
<path d="M165.546 289.558L237.83 239.47L255.044 251.398L182.76 301.474L165.546 289.558Z" fill="#E6E6DD"/>
<path d="M182.76 301.474V315.79L255.044 265.702V251.398L182.76 301.474Z" fill="#37474F"/>
<path d="M182.76 315.79L255.044 265.703L272.257 277.63L199.973 327.706L182.76 315.79Z" fill="#E6E6DD"/>
<path d="M199.973 327.706V342.022L272.257 291.934V277.63L199.973 327.706Z" fill="#37474F"/>
<path d="M220.674 128.179C219.235 168.75 198.66 217.017 174.742 235.912C165.855 242.925 157.76 244.907 151.153 242.531C144.391 235.124 140.527 220.935 141.203 201.473C142.652 160.902 163.228 112.634 187.135 93.7514C196.032 86.7268 204.146 84.7562 210.744 87.1441C217.544 94.5628 221.37 108.705 220.674 128.179Z" fill="#E6E6DD"/>
<path opacity="0.9" d="M220.674 128.179C219.235 168.75 198.66 217.017 174.742 235.912C165.855 242.925 157.76 244.907 151.153 242.531C144.391 235.124 140.527 220.935 141.203 201.473C142.652 160.902 163.228 112.634 187.135 93.7514C196.032 86.7268 204.146 84.7562 210.744 87.1441C217.544 94.5628 221.37 108.705 220.674 128.179Z" fill="white"/>
<path opacity="0.1" d="M174.636 215.116C167.169 216.153 160.259 220.369 155.162 226.998C152.408 230.545 150.162 234.614 148.516 239.042C149.311 240.289 150.193 241.452 151.153 242.519C152.575 243.018 154.04 243.321 155.519 243.423C155.906 242.264 156.195 241.047 156.533 239.876C158.204 234.425 161.181 229.688 165.089 226.262C168.998 222.836 173.664 220.874 178.5 220.622C181.813 220.518 185.097 221.237 188.391 221.55C189.695 219.823 190.97 218.072 192.255 216.171C186.421 215.812 180.403 214.421 174.636 215.116ZM173.206 155.755C179.968 156.81 187.348 157.262 193.26 153.112C199.954 148.406 203.132 139.075 206.358 130.625C209.363 122.777 213.468 114.489 220.027 111.452C218.665 100.475 215.4 92.2097 210.734 87.1093C207.552 86.0103 204.197 85.8394 200.949 86.6109C197.676 91.1075 195.292 96.4331 193.975 102.19C192.429 108.681 191.888 115.578 189.406 121.618C186.877 127.69 182.586 132.443 177.341 134.983C173.206 136.954 168.714 137.429 164.319 138.24C161.253 138.783 158.223 139.581 155.249 140.628C152.954 146.097 150.91 151.712 149.124 157.448C150.31 156.72 151.545 156.111 152.814 155.628C159.373 153.205 166.444 154.712 173.206 155.755ZM180.123 115.184C182.286 110.698 183.02 105.471 184.209 100.475C184.634 98.6083 185.175 96.7884 185.677 94.9685C184.131 96.2745 182.599 97.6964 181.079 99.2342C178.896 105.598 176.771 111.985 172.742 116.784C170.689 119.198 168.238 121.069 165.546 122.278C165.037 122.483 164.513 122.626 163.981 122.707C162.996 124.446 162.03 126.224 161.083 128.04C163.262 127.83 165.422 127.388 167.536 126.718C172.77 124.834 177.249 120.72 180.132 115.15L180.123 115.184ZM220.693 122.221C218.804 123.395 217.093 124.943 215.632 126.799C212.038 131.529 210.106 137.661 207.904 143.503C204.832 151.826 200.823 160.299 194.148 164.611C189.705 167.474 184.489 168.193 179.495 168.355C169.98 168.668 160.32 167.196 151.018 169.642C149.013 170.168 147.053 170.917 145.164 171.879C144.52 174.654 143.956 177.416 143.473 180.167C145.64 178.792 147.931 177.722 150.303 176.98C164.049 172.807 179.282 181.964 192.448 175.82C202.108 171.288 207.991 159.778 212.734 148.719C214.666 144.21 216.743 139.446 220.075 136.455C220.333 133.696 220.513 130.961 220.616 128.248C220.742 126.104 220.761 124.122 220.732 122.186L220.693 122.221ZM186.401 189.788C178.963 190.113 171.535 189.278 164.097 189.151C160.286 188.902 156.466 189.371 152.776 190.542C149.546 191.853 146.507 193.766 143.773 196.21C142.933 196.929 142.121 197.671 141.319 198.424C141.261 199.456 141.203 200.476 141.165 201.484C140.749 213.25 141.996 223.068 144.536 230.649C146.178 228.939 147.638 226.992 148.883 224.853C153.993 216.565 158.919 207.396 166.666 202.957C174.984 198.192 184.788 199.896 193.83 197.717C197.785 196.748 201.585 195.022 205.083 192.605C206.513 189.39 207.862 186.114 209.131 182.776C208.744 183.054 208.348 183.32 207.952 183.587C201.413 187.887 193.868 189.429 186.44 189.754L186.401 189.788Z" fill="#E6E6DD"/>
<path d="M265.106 110.506C265.106 114.448 264.487 117.948 260.469 118.795C264.584 119.003 264.874 122.272 265.106 126.839C265.241 122.307 265.598 119.003 269.327 118.795C265.482 118.029 265.106 114.448 265.106 110.506Z" fill="#E6E6DD"/>
<path d="M171.348 320.328C171.348 324.269 170.73 327.769 166.712 328.616C170.827 328.824 171.117 332.093 171.348 336.66C171.484 332.116 171.841 328.824 175.57 328.616C171.706 327.839 171.348 324.269 171.348 320.328Z" fill="#E6E6DD"/>
<path d="M141.142 198.893C141.142 200.62 140.872 202.139 139.114 202.51C140.91 202.603 141.046 204.052 141.142 205.987C141.2 204.005 141.355 202.51 142.987 202.51C141.297 202.174 141.142 200.62 141.142 198.893Z" fill="#E6E6DD"/>
<path d="M133.241 205.674C133.241 209.604 132.613 213.105 128.604 213.951C132.719 214.159 133.009 217.428 133.241 222.007C133.366 217.463 133.724 214.171 137.462 213.951C133.598 213.244 133.241 209.604 133.241 205.674Z" fill="#E0E0E0"/>
<path d="M129.473 185.922C129.473 187.951 129.154 189.736 127.097 190.176C129.203 190.28 129.357 191.973 129.473 194.303C129.541 191.984 129.724 190.28 131.647 190.176C129.657 189.782 129.473 187.951 129.473 185.922Z" fill="#E0E0E0"/>
<path d="M253.949 98.6598C253.949 100.978 253.9 103.181 251.128 103.702C254.026 103.702 253.833 105.87 253.978 108.652C254.055 105.87 254.258 103.876 256.547 103.749C254.18 103.273 254.248 101.963 253.949 98.6598Z" fill="#E0E0E0"/>
<path d="M278.04 205.941C277.837 210.288 277.547 212.166 274.273 212.687C277.605 212.907 277.885 215.562 278.079 219.26C278.185 215.562 278.455 212.873 281.498 212.687C278.368 212.084 278.291 210.346 278.04 205.941Z" fill="#E0E0E0"/>
<path d="M158.037 320.362C157.921 322.901 157.757 323.991 155.844 324.304C157.776 324.431 157.95 325.961 158.066 328.117C158.124 325.961 158.279 324.396 160.056 324.304C158.259 323.933 158.182 322.936 158.037 320.362Z" fill="#E0E0E0"/>
<path d="M271.201 106.473C271.201 107.875 271.201 109.22 269.491 109.533C271.269 109.533 271.133 110.843 271.22 112.524C271.269 110.843 271.385 109.637 272.766 109.556C271.336 109.266 271.375 108.478 271.201 106.473Z" fill="#E0E0E0"/>
<path d="M274.843 218.576C274.843 219.967 274.843 221.311 273.133 221.624C274.901 221.624 274.765 222.946 274.852 224.627C274.901 222.946 275.026 221.729 276.407 221.659C274.978 221.358 275.016 220.57 274.843 218.576Z" fill="#E0E0E0"/>
<path d="M166.953 314.833C166.953 316.224 166.953 317.569 165.243 317.882C167.021 317.882 166.885 319.192 166.972 320.873C167.021 319.192 167.146 317.986 168.527 317.905C167.117 317.627 167.156 316.827 166.953 314.833Z" fill="#E0E0E0"/>
<g filter="url(#filter0_d_1387_3861)">
<path d="M409.916 284.316L440.335 263.243L486.257 295.05L508.291 279.784L462.379 247.977L477.293 237.637L453.144 220.887L438.229 231.227L411.607 212.807L389.563 228.085L416.157 246.551L359.444 285.777L377.189 298.064L520.327 344.176L523.109 342.252C524.475 335.668 525.605 328.948 526.5 322.094L409.916 284.316Z" fill="#E6E6DD"/>
<path d="M412.776 122.624L411.636 123.412V78.877L397.861 69.3371L380.821 81.1374L394.876 17.7309L381.111 8.19092L357.416 24.6047L319.125 196.417V221.049L332.89 230.589L375.866 200.798V218.545L389.641 228.085L411.607 212.807V175.992L426.512 165.664V132.164L412.776 122.624ZM375.866 148.23L364.207 156.344L375.866 103.695V148.23Z" fill="#E6E6DD"/>
<path opacity="0.3" d="M412.776 122.624L411.636 123.412V78.877L397.861 69.3371L380.821 81.1374L394.876 17.7309L381.111 8.19092L357.416 24.6047L319.125 196.417V221.049L332.89 230.589L375.866 200.798V218.545L389.641 228.085L411.607 212.807V175.992L426.512 165.664V132.164L412.776 122.624ZM375.866 148.23L364.207 156.344L375.866 103.695V148.23Z" fill="black"/>
<path d="M411.626 142.492V78.8771L389.593 94.1433V157.77L359.164 178.844L394.876 17.731L371.181 34.1448L332.89 205.957V230.543L389.593 191.27V228.085L411.626 212.807V175.992L426.541 165.664V132.164L411.626 142.492Z" fill="#E6E6DD"/>
<path opacity="0.3" d="M411.626 142.492V78.8771L389.593 94.1433V157.77L359.164 178.844L394.876 17.731L371.181 34.1448L332.89 205.957V230.543L389.593 191.27V228.085L411.626 212.807V175.992L426.541 165.664V132.164L411.626 142.492Z" fill="white"/>
<path d="M394.876 17.7309L381.111 8.19092L357.416 24.6047L371.181 34.1447L394.876 17.7309Z" fill="#E6E6DD"/>
<path opacity="0.5" d="M394.876 17.7309L381.111 8.19092L357.416 24.6047L371.181 34.1447L394.876 17.7309Z" fill="white"/>
<path d="M397.861 69.337L411.626 78.877L389.592 94.1432L379.488 87.1419L380.821 81.1374L397.861 69.337Z" fill="#E6E6DD"/>
<path opacity="0.5" d="M397.861 69.337L411.626 78.877L389.592 94.1432L379.488 87.1419L380.821 81.1374L397.861 69.337Z" fill="white"/>
<path d="M389.592 157.77L375.818 148.23L364.158 156.31L359.164 178.844L389.592 157.77Z" fill="#E6E6DD"/>
<path opacity="0.5" d="M389.592 157.77L375.818 148.23L364.158 156.31L359.164 178.844L389.592 157.77Z" fill="white"/>
<path d="M426.541 132.164L412.776 122.624L411.626 123.412V142.492L426.541 132.164Z" fill="#E6E6DD"/>
<path opacity="0.5" d="M411.626 142.492L426.541 132.164L412.776 122.624L411.626 123.412V142.492Z" fill="white"/>
<path d="M332.89 205.957L319.125 196.417L357.416 24.6049L371.181 34.1448L332.89 205.957Z" fill="#E6E6DD"/>
<path opacity="0.15" d="M332.89 205.957L319.125 196.417L357.416 24.6049L371.181 34.1448L332.89 205.957Z" fill="black"/>
</g>
<g filter="url(#filter1_d_1387_3861)">
<path d="M162.169 432.184L137.99 415.434L123.085 425.762L96.5114 407.354L74.4678 422.621L101.042 441.028L44.3391 480.312L62.084 492.611L205.232 538.723L228.927 522.309L94.7919 478.863L125.22 457.778L171.133 489.597L193.176 474.32L147.254 442.512L162.169 432.184Z" fill="#E6E6DD"/>
</g>
<g filter="url(#filter2_d_1387_3861)">
<path d="M97.6512 317.159L96.5113 317.959V273.378L82.7365 263.838L65.6968 275.696L79.7517 212.289L65.9865 202.75L42.2912 219.14L4 390.964V415.55L17.8038 425.09L60.7413 395.345V413.081L74.5064 422.621L96.55 407.354V370.528L111.455 360.199V326.699L97.6512 317.159ZM60.7027 342.765L49.0434 350.88L60.7027 298.277V342.765Z" fill="#E6E6DD"/>
<path opacity="0.3" d="M97.6512 317.159L96.5113 317.959V273.378L82.7365 263.838L65.6968 275.696L79.7517 212.289L65.9865 202.75L42.2912 219.14L4 390.964V415.55L17.8038 425.09L60.7413 395.345V413.081L74.5064 422.621L96.55 407.354V370.528L111.455 360.199V326.699L97.6512 317.159ZM60.7027 342.765L49.0434 350.88L60.7027 298.277V342.765Z" fill="black"/>
<path d="M96.5111 337.039V273.412L74.4676 288.679V352.305L44.0394 373.379L79.7611 212.266L56.0658 228.68L17.7649 400.492V425.09L74.4676 385.805V422.621L96.5111 407.354V370.528L111.416 360.199V326.699L96.5111 337.039Z" fill="#E6E6DD"/>
<path opacity="0.3" d="M96.5111 337.039V273.412L74.4676 288.679V352.305L44.0394 373.379L79.7611 212.266L56.0658 228.68L17.7649 400.492V425.09L74.4676 385.805V422.621L96.5111 407.354V370.528L111.416 360.199V326.699L96.5111 337.039Z" fill="white"/>
<path d="M79.7614 212.266L65.9866 202.726L42.2913 219.14L56.066 228.68L79.7614 212.266Z" fill="#E6E6DD"/>
<path opacity="0.5" d="M79.7614 212.266L65.9866 202.726L42.2913 219.14L56.066 228.68L79.7614 212.266Z" fill="white"/>
<path d="M82.7366 263.872L96.5114 273.412L74.4679 288.679L64.3638 281.689L65.6968 275.684L82.7366 263.872Z" fill="#E6E6DD"/>
<path opacity="0.5" d="M82.7366 263.872L96.5114 273.412L74.4679 288.679L64.3638 281.689L65.6968 275.684L82.7366 263.872Z" fill="white"/>
<path d="M74.468 352.305L60.7028 342.766L49.0435 350.845L44.0398 373.379L74.468 352.305Z" fill="#E6E6DD"/>
<path opacity="0.5" d="M74.468 352.305L60.7028 342.766L49.0435 350.845L44.0398 373.379L74.468 352.305Z" fill="white"/>
<path d="M111.416 326.7L97.6513 317.16L96.5115 317.959V337.039L111.416 326.7Z" fill="#E6E6DD"/>
<path opacity="0.5" d="M96.5115 337.039L111.416 326.7L97.6513 317.16L96.5115 317.959V337.039Z" fill="white"/>
<path d="M17.7651 400.492L4 390.964L42.2912 219.14L56.066 228.68L17.7651 400.492Z" fill="#E6E6DD"/>
<path opacity="0.15" d="M17.7651 400.492L4 390.964L42.2912 219.14L56.066 228.68L17.7651 400.492Z" fill="black"/>
</g>
<g filter="url(#filter3_d_1387_3861)">
<path d="M329.971 406.384C326.119 404.275 322.042 402.812 317.858 402.037C315.297 401.528 312.682 401.555 310.13 402.119C308.312 402.564 306.552 403.297 304.894 404.298C299.214 407.683 298.393 411.45 298.21 414.638C298.026 417.825 299.494 422.091 304.189 426.032L384.761 493.762C399.426 484.387 413.056 472.844 425.332 459.405C390.325 439.884 333.197 408.042 329.971 406.384Z" fill="#E6E6DD"/>
<path d="M355.753 263.841C360.698 265 362.63 265.406 364.997 270.321C367.364 275.236 371.382 293.504 372.483 297.295C373.585 301.085 373.913 302.465 373.449 306.684C372.976 311.089 370.812 318.913 369.904 323.202C369.479 325.185 369.199 327.12 368.89 329.149C368.462 331.225 367.914 333.262 367.248 335.246C366.963 336.213 366.465 337.07 365.808 337.727C365.403 338.156 364.842 338.202 364.456 338.596C364.07 338.99 363.963 339.686 363.423 340.01C362.882 340.335 362.128 340.149 361.597 340.52C361.073 340.981 360.528 341.407 359.964 341.795C359.446 341.977 358.971 342.307 358.583 342.758C358.235 343.21 357.907 344.23 357.279 344.149C356.651 344.067 356.467 343.256 356.439 342.56C356.461 341.196 356.847 339.875 357.54 338.793C358.156 337.588 358.83 336.427 359.559 335.316C360.268 334.285 360.776 333.077 361.046 331.78C361.268 330.911 361.201 329.81 360.264 330.308C359.172 330.911 358.013 332.163 356.699 331.885C355.791 331.699 355.733 330.841 356.265 330.123C357.138 328.938 357.939 327.679 358.66 326.355C359.394 324.999 360.003 323.573 360.766 322.252C361.178 321.565 361.627 320.911 362.109 320.293C363.442 318.554 363.384 316.178 363.538 313.964C363.751 310.892 363.934 303.01 363.934 303.01L357.945 285.309L355.753 263.841Z" fill="#FFBDA7"/>
<path d="M363.548 313.964C363.606 310.312 363.732 306.661 363.848 303.01C361.916 297.376 359.849 291.174 357.955 285.309C360.042 291.174 362.07 297.067 364.041 302.986C363.886 306.649 363.751 310.312 363.548 313.964Z" fill="white"/>
<path d="M322.359 401.307C324.059 400.588 325.325 400.519 325.305 401.527C325.075 402.77 324.708 403.971 324.214 405.098L322.861 407.335L322.214 409.537C322.214 409.537 321.422 410.696 321.374 410.812C321.325 410.928 321.065 406.697 321.065 406.697C321.065 406.697 320.108 401.829 322.359 401.307Z" fill="#E6E6DD"/>
<path d="M340.616 315.25C340.616 315.25 336.752 320.756 334.463 331.073C332.35 340.661 330.737 350.398 329.633 360.226C329.082 364.619 328.193 370.16 326.88 378.773C325.865 385.403 322.678 405.735 322.678 405.735C322.678 405.735 324.513 409.398 326.735 410.511C329.923 412.11 332.994 411.38 333.4 407.961C333.4 407.961 335.506 403.927 338.703 393.517C340.24 388.739 341.468 383.825 342.374 378.819C342.69 375.678 342.784 372.509 342.654 369.349L355.482 342.584C356.9 339.651 358.599 336.928 360.544 334.469C361.746 332.994 362.688 331.243 363.316 329.323C365.441 322.368 362.35 313.013 362.35 313.013L340.616 315.25Z" fill="#E6E6DD"/>
<path d="M329.681 360.215C327.614 375.458 325.247 390.643 322.726 405.782C324.948 390.573 327.324 375.4 329.681 360.215Z" fill="white"/>
<path d="M324.677 417.501L323.991 417.338C324.04 417.025 329.179 385.287 332.772 371.957C336.366 358.627 345.784 332.151 345.88 331.885L346.528 332.221C346.431 332.476 337.032 358.94 333.448 372.224C329.865 385.508 324.735 417.188 324.677 417.501Z" fill="black"/>
<path d="M357.501 324.164H336.434C335.663 326.409 335.017 328.714 334.502 331.061C332.554 339.889 331.054 348.851 330.01 357.896C330.522 362.034 331.101 366.289 331.633 369.21C333.053 376.93 333.941 382.378 335.062 385.566C336.143 388.26 337.42 390.836 338.877 393.262C340.378 388.581 341.576 383.768 342.461 378.866C342.777 375.724 342.871 372.556 342.741 369.395L355.299 343.256L356.197 339.141C359.317 332.916 358.96 328.245 357.501 324.164Z" fill="black"/>
<path d="M305.087 411.589C304.711 411.38 304.247 413.154 304.208 413.791C304.17 414.429 305.174 417.026 307.811 418.938C310.449 420.851 314.979 421.917 316.679 422.555C318.379 423.192 319.741 424.873 321.982 426.183C323.972 427.342 326.976 427.956 328.29 427.249C328.544 427.068 328.761 426.823 328.928 426.531C329.095 426.238 329.207 425.906 329.256 425.557C329.613 424.247 329.584 423.946 329.449 423.899L305.087 411.589Z" fill="#37474F"/>
<path d="M330.386 421.001C330.213 422.34 329.844 423.631 329.295 424.815C328.911 425.162 328.473 425.414 328.007 425.555C327.541 425.696 327.056 425.724 326.581 425.638C324.535 425.462 322.565 424.638 320.872 423.25C319.578 422.24 318.182 421.434 316.718 420.851C314.703 420.268 312.724 419.516 310.797 418.602C309.358 417.873 308.02 416.888 306.826 415.681C305.86 414.591 304.962 413.362 305.059 411.832C305.275 410.869 305.735 410.01 306.375 409.373C307.015 408.736 307.804 408.352 308.633 408.274C310.22 408.177 311.806 408.465 313.298 409.12C314.748 409.709 316.248 410.098 317.771 410.279C318.814 410.383 320.041 411.438 320.852 410.337C321.818 409.062 322.195 406.048 322.842 404.541C322.948 404.298 323.093 404.031 323.316 403.973C323.538 403.915 323.905 404.24 324.108 404.564C325.053 405.981 326.265 407.109 327.643 407.856C331.372 410.07 333.101 408.9 333.101 408.9L333.449 407.972C333.449 407.972 334.192 408.471 333.246 410.557C332.447 412.273 331.775 414.069 331.237 415.924C330.767 417.564 330.481 419.271 330.386 421.001Z" fill="#E6E6DD"/>
<path d="M305.087 411.832C306.256 406.639 311.163 408.03 314.332 409.34C315.454 409.815 316.617 410.137 317.8 410.302C316.605 410.238 315.423 409.985 314.283 409.549C311.154 408.39 306.449 406.906 305.087 411.867V411.832Z" fill="white"/>
<path d="M313.994 409.352C312.4 409.526 311.965 412.621 311.965 412.621C313.393 413.541 314.947 414.145 316.554 414.406C317.671 414.638 318.82 414.361 319.775 413.63C320.731 412.899 321.425 411.766 321.722 410.453C322.398 407.868 321.78 404.251 321.654 403.081C321.581 402.678 321.641 402.258 321.821 401.907C322.001 401.557 322.288 401.304 322.62 401.203C322.347 401.233 322.081 401.331 321.841 401.49C321.6 401.649 321.39 401.866 321.222 402.127C321.054 402.388 320.933 402.688 320.866 403.007C320.799 403.327 320.788 403.66 320.833 403.985C320.881 405.376 320.833 408.123 320.34 409.039C319.848 409.954 317.384 410.36 313.994 409.352Z" fill="#E6E6DD"/>
<path d="M353.927 315.25C356.247 318.541 357.605 322.653 357.791 326.958C357.95 331.14 356.857 335.251 354.71 338.55C353.908 352.645 351.589 379.781 351.589 379.781C354.69 383.607 355.453 386.087 357.289 392.949C358.38 397.122 362.476 410.534 363.49 414.267C358.061 415.066 355.106 421.546 355.106 421.546C355.106 421.546 345.542 404.599 340.944 394.63C337.534 387.258 335.96 384.569 334.946 380.21C333.69 374.774 333.352 371.969 332.231 362.823C331.111 353.677 330.039 342.039 329.488 333.02C328.937 324.002 328.522 314.474 328.522 314.474L353.927 315.25Z" fill="#E6E6DD"/>
<path d="M355.144 421.511C349.571 411.658 344.103 401.69 339.312 391.257C337.736 388.215 336.382 385.015 335.264 381.694C334.37 378.281 333.686 374.794 333.217 371.261C330.751 352.428 329.19 333.441 328.541 314.393L329.353 328.65C330.087 342.92 331.565 357.12 333.458 371.215C334.144 375.852 334.859 380.639 336.617 384.905C342.255 397.495 348.44 409.721 355.144 421.535V421.511Z" fill="white"/>
<path d="M341.63 384.175C338.819 375.574 335.448 328.755 335.622 312.573H334.917C334.859 317.986 335.197 326.807 335.776 336.486C333.487 335.095 332.009 332.545 332.009 319.725H331.304C331.304 332.615 332.705 335.733 335.834 337.46C337.013 356.633 339.119 378.808 340.973 384.499C343.726 392.915 358.09 421.349 358.226 421.593L358.834 421.152C358.689 420.897 344.364 392.532 341.63 384.175Z" fill="black"/>
<path d="M354.352 420.074C353.492 421.535 352.517 422.566 354.961 424.514C356.893 426.009 356.96 427.215 357.55 428.814C357.933 430.374 358.09 432.001 358.013 433.625C358.013 433.625 361.259 427.748 360.312 423.957C359.366 420.167 354.352 420.074 354.352 420.074Z" fill="#E6E6DD"/>
<path d="M364.756 416.712C365.67 417.87 366.745 418.827 367.934 419.541C368.755 420.155 369.605 420.7 369.866 421.859C369.866 421.987 369.383 422.682 369.392 422.81C369.434 423.362 369.418 423.919 369.344 424.467C369.16 426.38 368.291 427.794 368.098 429.695C368.035 430.454 367.922 431.206 367.76 431.944C367.621 432.842 367.559 433.755 367.576 434.668C367.528 435.618 367.47 436.569 367.431 437.52C367.388 437.924 367.388 438.333 367.431 438.737C367.499 439.142 362.109 442.4 359.935 443.651C359.807 443.726 359.674 443.792 359.539 443.849C358.213 444.282 356.801 444.117 355.569 443.385C351.242 441.495 351.512 439.618 351.512 439.618C351.534 438.84 351.739 438.085 352.103 437.441C352.467 436.797 352.976 436.29 353.57 435.978C353.833 435.794 354.111 435.642 354.4 435.526C355.477 435.046 356.651 434.977 357.762 435.329C357.981 434.557 358.083 433.744 358.061 432.929C358.15 431.711 358.166 430.487 358.11 429.266C357.918 427.887 357.472 426.576 356.806 425.429C355.888 423.911 354.874 421.952 354.265 420.885C353.657 419.819 353.492 417.246 357.095 414.151C360.554 411.195 363.084 411.832 363.577 413.049C363.851 414.321 364.247 415.55 364.756 416.712Z" fill="#E6E6DD"/>
<path d="M351.454 439.629C351.454 436.047 355.26 434.251 357.743 435.306C355.202 434.738 351.821 436.152 351.454 439.629Z" fill="white"/>
<path opacity="0.1" d="M355.453 437.183C355.742 436.299 356.288 435.57 356.989 435.132C357.244 435.167 357.496 435.225 357.743 435.306C357.308 435.804 355.753 436.546 355.453 437.183Z" fill="black"/>
<path d="M370.368 422.984C371.334 423.471 370.532 425.302 369.402 428.142C368.381 430.241 367.973 432.688 368.243 435.097C368.475 437.612 367.982 438.841 367.074 439.734C366.166 440.626 359.423 444.162 359.423 444.162C361.027 441.732 361.956 438.761 362.08 435.665C362.447 430.124 362.891 426.565 365.19 424.143C365.905 423.449 366.753 422.979 367.657 422.777C368.561 422.574 369.492 422.646 370.368 422.984Z" fill="black"/>
<path d="M351.454 439.618C351.56 440.707 354.139 442.91 357.182 442.863C360.225 442.817 360.486 442.04 360.959 437.763C361.433 433.486 361.761 427.539 363.307 425.012C364.852 422.485 366.881 420.955 369.846 421.882C370.184 422.08 371.102 423.181 370.764 424.201C370.764 424.201 370.764 423.389 369.547 422.961C368.503 422.601 367.257 422.636 365.519 424.444C363.48 426.542 363.026 431.492 362.795 435.735C362.563 439.977 361.462 444.046 358.535 444.428C357.271 444.634 355.986 444.506 354.768 444.053C353.55 443.601 352.429 442.835 351.483 441.809C351.3 441.096 351.29 440.336 351.454 439.618Z" fill="#37474F"/>
<path d="M334.009 237.227C333.615 236.561 333.372 235.783 333.304 234.97C333.236 234.157 333.346 233.337 333.622 232.59C334.115 231.083 335.139 229.495 338.124 227.64C341.679 225.438 351.435 223.862 356.265 231.524C356.96 232.683 347.359 254.301 347.832 258.787C345.34 255.646 337.119 244.599 337.119 244.599C335.187 243.602 333.99 242.756 333.574 240.554C333.424 239.417 333.576 238.253 334.009 237.227Z" fill="#E6E6DD"/>
<path d="M337.119 244.541C334.221 243.625 332.376 240.577 334.009 237.192C332.772 240.67 334.424 243.197 337.119 244.541Z" fill="white"/>
<path d="M334.009 237.227C332.791 235.627 333.091 233.054 334.009 231.338C335.074 229.674 336.496 228.388 338.124 227.617C337.381 228.13 336.665 228.695 335.979 229.31C333.96 230.99 332.453 234.526 334.047 237.227H334.009Z" fill="white"/>
<path d="M335.477 243.382C335.477 243.382 332.84 248.54 333.139 248.969C333.746 249.548 334.392 250.064 335.071 250.511L335.477 243.382Z" fill="#F0997A"/>
<path d="M335.477 243.382C334.82 245.04 334.028 246.604 333.381 248.25C333.294 248.517 333.11 248.83 333.236 249.016C333.402 249.245 333.597 249.441 333.815 249.595C333.555 249.421 333.12 249.282 333.062 248.865C333.594 246.882 334.411 245.026 335.477 243.382Z" fill="white"/>
<path d="M338.742 233.946C336.974 234.955 335.448 236.578 334.878 241.226C334.733 242.443 335.526 244.101 335.168 245.712C333.632 252.667 335.458 258.463 336.578 259.68C337.332 260.538 341.292 260.92 343.34 260.225C345.939 259.355 351.59 256.295 354.285 251.415C357.453 245.619 358.149 237.969 354.661 234.874C349.745 230.515 340.626 232.88 338.742 233.946Z" fill="#FFBDA7"/>
<path d="M334.897 241.226C334.897 242.802 335.67 244.344 335.226 245.955C334.405 250.441 334.347 255.774 336.597 259.68C334.125 255.901 334.125 250.407 335.071 245.909C335.516 244.379 334.781 242.814 334.897 241.272V241.226Z" fill="white"/>
<path d="M352.256 254.695L353.28 263.239C354.874 263.644 355.019 265.905 354.246 267.609L354.623 270.02L343.726 272.361L342.509 260.41L352.256 254.695Z" fill="#FFBDA7"/>
<path d="M336.81 259.854C337.776 260.468 339.756 260.92 342.519 260.457L342.355 258.764C341.478 259.159 340.577 259.469 339.66 259.691C338.722 259.915 337.761 259.969 336.81 259.854Z" fill="#F0997A"/>
<path d="M336.134 236.427C336.06 237.43 336.279 238.432 336.753 239.263C337.227 240.094 337.927 240.702 338.732 240.982C338.302 242.093 338.141 243.326 338.269 244.541C338.305 245.259 338.511 245.949 338.864 246.53C339.217 247.112 339.701 247.56 340.259 247.822C341.022 248.135 341.224 247.729 341.524 246.999C341.91 245.967 342.403 244.39 344.248 244.68C346.363 245.028 346.924 248.853 345.687 251.357C345.45 251.886 345.108 252.338 344.693 252.673C344.277 253.009 343.799 253.217 343.301 253.281C343.027 253.276 342.757 253.201 342.509 253.062C342.261 252.922 342.04 252.72 341.862 252.47C341.862 252.47 341.997 255.808 345.581 257.79C347.823 259.221 350.419 259.633 352.893 258.95C354.559 256.729 356.13 254.408 357.598 251.995C361.462 245.225 362.283 232.834 355.666 230.608C355.347 230.504 349.329 229.449 346.392 230.26C337.341 232.578 336.153 235.905 336.134 236.427Z" fill="#E6E6DD"/>
<path d="M352.469 229.739C351.668 230.43 351.119 231.463 350.933 232.625C350.85 233.204 350.896 233.799 351.065 234.351C351.235 234.902 351.522 235.39 351.899 235.766C353.831 237.586 356.845 235.465 357.202 232.776C357.608 229.599 354.42 228 352.469 229.739Z" fill="#E6E6DD"/>
<path d="M354.043 230.747C352.063 232.208 350.826 235.65 351.879 238.131C352.169 238.803 352.575 239.406 352.845 240.113C353.608 242.374 352.497 244.866 352.256 247.288C352.091 249.211 352.368 251.152 353.058 252.899C353.715 254.186 355.164 254.51 355.743 255.855C356.139 256.782 355.869 257.918 356.023 258.95C356.361 261.164 358.544 262.23 360.428 262.277C361.224 262.361 362.027 262.235 362.778 261.906C363.529 261.578 364.211 261.055 364.775 260.375C365.207 259.57 365.678 258.796 366.185 258.057C367.306 256.794 369.083 256.898 370.32 255.739C370.777 255.254 371.135 254.65 371.366 253.972C371.598 253.295 371.696 252.563 371.653 251.832C371.539 250.369 371.212 248.941 370.687 247.613C369.885 245.295 370.523 243.799 370.928 241.446C371.118 240.175 370.943 238.865 370.43 237.729C369.918 236.594 369.099 235.701 368.108 235.198C366.746 234.549 365.084 234.654 363.983 233.483C363.461 232.741 362.971 231.967 362.515 231.164C360.447 228.44 356.371 229.043 354.043 230.747Z" fill="#E6E6DD"/>
<path d="M361.819 270.228C361.385 268.811 360.697 267.526 359.804 266.463C358.911 265.399 357.835 264.584 356.651 264.073C355.685 263.725 353.28 263.239 353.28 263.239C353.83 264.745 352.903 265.742 351.271 266.194C349.174 266.786 345.977 266.844 343.804 265.116L342.915 264.456C340.543 265.155 338.203 265.999 335.902 266.983C335.429 267.249 332.811 268.304 328.696 279.397C326.938 284.138 327.459 288.949 330.695 292.368C330.879 295.371 329.266 302.129 329.266 302.129C328.445 307.769 328.257 313.515 328.706 319.215C328.706 319.215 330.637 325.358 345.958 325.289C357.81 325.289 363.77 318.334 363.77 318.334C363.625 314.856 359.066 302.65 359.52 298.547C360.225 292.565 364.794 281.843 361.819 270.228Z" fill="#E6E6DD"/>
<path d="M335.902 266.983C339.022 270.031 339.264 274.216 338.8 279.861C338.336 285.506 333.613 303.149 332.647 306.985C331.681 310.822 330.299 312.155 327.865 315.262C325.431 318.369 319.741 323.307 316.911 326.135C315.597 327.445 314.428 328.813 313.182 330.238C311.821 331.616 310.381 332.879 308.874 334.017C308.169 334.596 307.349 334.94 306.498 335.014C305.957 335.014 305.484 334.713 304.972 334.759C304.46 334.806 304.006 335.292 303.445 335.176C302.885 335.061 302.325 334.377 301.716 334.295C301.071 334.306 300.426 334.271 299.784 334.191C299.275 333.965 298.727 333.897 298.19 333.994C297.688 334.11 296.925 334.701 296.452 334.203C295.978 333.704 296.239 332.904 296.548 332.313C297.231 331.207 298.193 330.394 299.292 329.995C300.379 329.456 301.491 328.995 302.624 328.616C303.69 328.272 304.68 327.651 305.522 326.796C306.121 326.251 306.604 325.3 305.609 325.057C304.431 324.767 302.875 324.964 301.938 323.817C301.301 323.028 301.678 322.298 302.46 322.089C303.746 321.749 305.009 321.291 306.237 320.722C307.493 320.142 308.681 319.412 309.946 318.879C310.621 318.617 311.308 318.404 312.004 318.241C313.936 317.766 315.047 315.807 316.244 314.126C317.925 311.808 320.814 307.38 322.774 304.203L325.74 286.99C327.614 277.647 328.271 269.811 335.902 266.983Z" fill="#FFBDA7"/>
<path d="M338.781 279.861C338.027 284.961 336.991 289.995 335.68 294.93C335.583 295.336 335.477 295.73 335.38 296.089C334.192 300.923 333.043 305.282 332.618 306.974C331.748 310.452 330.521 311.889 328.483 314.439L327.836 315.251C325.296 318.485 319.712 323.295 316.882 326.135C315.578 327.445 314.399 328.801 313.163 330.227C311.798 331.609 310.356 332.875 308.845 334.017C308.139 334.592 307.319 334.932 306.469 335.003C305.928 335.061 305.454 334.701 304.943 334.748C304.431 334.794 303.977 335.281 303.416 335.165C302.856 335.049 302.296 334.365 301.687 334.296C301.042 334.303 300.397 334.264 299.755 334.18C299.245 333.959 298.698 333.891 298.161 333.983C298.007 333.983 297.823 334.11 297.63 334.191L297.389 334.284C297.28 334.333 297.166 334.364 297.05 334.377C296.942 334.403 296.831 334.4 296.724 334.368C296.617 334.335 296.517 334.275 296.432 334.191C295.901 333.635 296.21 332.905 296.519 332.314C297.202 331.207 298.164 330.394 299.263 329.995C300.349 329.452 301.462 328.988 302.595 328.604C303.661 328.261 304.651 327.639 305.493 326.784C306.092 326.239 306.575 325.301 305.58 325.046C304.402 324.756 302.846 324.953 301.919 323.817C301.272 323.017 301.649 322.287 302.431 322.078C303.717 321.739 304.98 321.281 306.208 320.71C307.464 320.131 308.662 319.4 309.917 318.879C310.59 318.609 311.277 318.396 311.975 318.241C313.907 317.766 315.018 315.795 316.215 314.126C317.896 311.808 320.784 307.368 322.755 304.192L325.711 286.978C327.585 277.589 328.271 269.753 335.873 266.936C336.658 267.7 337.314 268.636 337.805 269.695C339.099 272.431 339.128 275.758 338.781 279.861Z" fill="#FFBDA7"/>
<path d="M296.394 334.203C296.214 333.984 296.106 333.693 296.092 333.386C296.078 333.078 296.158 332.775 296.317 332.534C297.041 330.853 298.616 330.134 300.007 329.566C300.931 329.045 301.904 328.656 302.904 328.407C303.854 328.055 304.746 327.51 305.542 326.796C304.789 327.607 303.909 328.229 302.953 328.627C301.023 329.195 299.17 330.085 297.447 331.27C296.809 331.885 295.698 333.171 296.432 334.157L296.394 334.203Z" fill="white"/>
<path d="M301.939 323.863C300.741 322.217 303.059 322.008 303.928 321.661C306.227 320.953 308.256 319.435 310.516 318.67C311.675 318.457 312.784 317.956 313.772 317.198C315.346 315.702 317.037 312.7 318.341 310.811L322.688 304.169C323.654 298.373 325.19 289.343 326.339 283.454C327.566 276.499 329.449 269.069 335.902 266.983C329.546 269.15 327.691 276.534 326.513 283.501C325.354 289.482 323.963 298.234 322.871 304.366L318.486 310.996C317.143 312.897 315.491 315.842 313.859 317.383C312.858 318.143 311.736 318.645 310.565 318.855C308.304 319.609 306.247 321.093 303.948 321.753C303.069 322.089 300.77 322.24 301.939 323.898V323.863Z" fill="white"/>
<path opacity="0.3" d="M357.743 342.387C357.742 342.837 357.846 343.278 358.042 343.662C358.245 343.36 358.419 342.989 358.593 342.758C358.981 342.307 359.455 341.977 359.974 341.796C360.537 341.407 361.082 340.981 361.607 340.52C362.128 340.149 362.824 340.37 363.432 340.01C364.041 339.651 364.06 339.014 364.466 338.596C364.871 338.179 365.432 338.156 365.818 337.727C366.475 337.07 366.972 336.213 367.257 335.246C367.923 333.263 368.472 331.225 368.9 329.149C369.209 327.12 369.489 325.185 369.914 323.202C370.822 318.914 372.986 311.089 373.459 306.684C373.913 302.465 373.585 301.074 372.493 297.295C371.401 293.516 367.373 275.271 365.007 270.321C362.766 265.685 360.901 265.059 356.497 264.015L356.236 263.934L355.791 263.818L355.444 263.726L354.999 263.621L354.738 263.563L354.101 263.413L353.618 263.308H353.492H353.289L352.778 259.031H352.903C353.686 257.872 354.545 256.771 355.444 255.472C355.553 255.624 355.647 255.792 355.724 255.971C356.129 256.898 355.849 258.022 356.004 259.054C356.342 261.28 358.525 262.335 360.409 262.392C361.206 262.472 362.007 262.343 362.758 262.012C363.509 261.682 364.191 261.159 364.756 260.48C365.191 259.677 365.662 258.904 366.166 258.162C367.286 256.898 369.064 257.002 370.31 255.843C370.766 255.356 371.123 254.749 371.353 254.069C371.582 253.39 371.678 252.656 371.633 251.925C371.524 250.461 371.197 249.032 370.667 247.706C369.866 245.387 370.503 243.892 370.909 241.551C371.1 240.279 370.926 238.968 370.416 237.831C369.905 236.694 369.088 235.798 368.098 235.291C366.726 234.642 365.065 234.758 363.963 233.576C363.444 232.833 362.957 232.06 362.505 231.257C360.959 229.229 358.303 229.055 356.081 229.797C355.532 229.34 354.875 229.108 354.207 229.136C351.193 226.331 347.262 225.658 343.891 225.983C342.622 226.622 341.475 227.565 340.519 228.753C337.486 232.358 335.689 237.656 336.482 242.663C336.636 243.602 336.878 244.507 337.003 245.445C337.322 247.845 336.878 250.291 336.887 252.725C336.897 255.159 337.534 257.849 339.293 259.042C340.626 259.935 342.258 259.761 343.775 259.993C346.267 260.376 345.977 262.219 346.074 264.757C346.116 265.146 346.089 265.541 345.996 265.916C345.958 266.052 345.899 266.178 345.823 266.287C345.175 267.249 343.34 267.632 342.529 267.957C340.92 268.424 339.349 269.06 337.834 269.858C337.138 270.282 336.535 270.897 336.076 271.654C334.231 274.761 333.448 278.459 332.666 282.087C331.941 285.448 331.178 288.81 330.377 292.148C329.655 295.178 328.902 298.191 328.116 301.19C327.505 303.918 326.589 306.535 325.392 308.968C323.895 311.715 321.75 313.848 319.818 316.189C315.443 321.498 311.782 328.291 305.928 330.841C303.677 331.815 301.262 332.082 298.953 332.824C298.152 333.079 297.244 333.589 297.021 334.481C297.137 334.468 297.251 334.437 297.36 334.388L297.601 334.296C297.794 334.215 297.978 334.133 298.132 334.087C298.669 333.995 299.216 334.063 299.726 334.284C300.368 334.368 301.013 334.407 301.658 334.4C302.267 334.47 302.721 335.142 303.387 335.269C304.054 335.397 304.353 334.898 304.914 334.852C305.474 334.806 305.879 335.165 306.44 335.107C307.29 335.036 308.11 334.696 308.816 334.122C310.327 332.98 311.769 331.713 313.134 330.331C314.37 328.906 315.549 327.549 316.853 326.24C319.683 323.4 325.267 318.589 327.807 315.355L328.454 314.543C330.483 312.005 331.71 310.579 332.579 307.09C333.004 305.398 334.154 301.039 335.342 296.205L335.641 295.046C336.087 295.698 336.321 296.522 336.298 297.365C336.655 302.998 337.776 308.701 338.539 314.312C339.08 318.311 339.631 322.31 339.882 326.344C340.075 329.265 340.104 332.14 340.143 335.107L340.374 355.972C340.374 357.131 340.374 358.29 340.423 359.519C340.435 362.803 340.622 366.082 340.983 369.337C341.298 372.206 341.818 375.037 342.538 377.799C342.712 378.472 342.896 379.144 343.098 379.816C345.098 386.481 348.237 392.567 351.261 398.572C354.328 404.988 357.08 411.614 359.501 418.417C359.997 419.606 360.361 420.869 360.583 422.172C360.892 424.421 360.38 426.705 360.235 428.977C360.09 431.249 360.302 433.428 360.235 435.653C360.277 437.893 359.736 440.093 358.689 441.948C357.934 443.115 356.889 443.964 355.704 444.37C356.633 444.564 357.579 444.599 358.515 444.475C359.055 444.415 359.576 444.2 360.032 443.849C362.422 442.639 364.757 441.277 367.026 439.768C367.934 438.899 368.426 437.659 368.204 435.132C367.925 432.724 368.33 430.274 369.354 428.177C369.973 426.902 370.448 425.534 370.764 424.108C371.005 423.123 370.155 422.103 369.798 421.906C369.556 420.747 368.706 420.19 367.866 419.587C366.68 418.874 365.608 417.916 364.698 416.759C364.175 415.592 363.769 414.355 363.49 413.073C363.366 412.791 363.175 412.56 362.94 412.412C361.452 407.277 358.216 396.601 357.26 392.973C355.463 386.099 354.661 383.618 351.56 379.793C351.56 379.793 353.27 359.763 354.265 345.192L355.463 342.677C355.588 342.41 355.714 342.155 355.849 341.9C357.19 339.276 358.758 336.828 360.525 334.597C360.699 334.377 360.872 334.122 361.046 333.878C360.785 334.4 360.534 334.922 360.244 335.432C359.095 337.541 357.656 339.802 357.743 342.387ZM363.654 318.485L363.77 318.357C363.712 317.603 363.592 316.858 363.413 316.132C363.191 315.146 362.882 313.975 362.544 312.712C362.437 312.318 362.321 311.912 362.205 311.553C361.809 310.139 361.384 308.632 360.998 307.171C360.872 306.719 360.756 306.267 360.65 305.827C360.544 305.386 360.399 304.853 360.293 304.389C360.187 303.925 360.138 303.728 360.071 303.404C360.071 303.3 360.022 303.184 360.003 303.079C359.984 302.975 359.916 302.65 359.877 302.453C359.8 302.071 359.733 301.711 359.684 301.364L359.626 300.981C359.622 300.892 359.622 300.803 359.626 300.715C359.598 300.546 359.579 300.376 359.568 300.205V299.857C359.559 299.648 359.559 299.439 359.568 299.231C359.558 299.03 359.558 298.829 359.568 298.628C359.829 296.829 360.188 295.051 360.641 293.308C360.95 291.963 361.297 290.526 361.607 288.995C362.524 291.047 363.413 293.099 364.302 295.162C365.065 296.793 365.711 298.5 366.234 300.263C367.296 304.273 367.035 308.62 366.63 312.805C366.205 317.578 365.324 322.277 364.002 326.807C364.285 324.03 364.167 321.214 363.654 318.485Z" fill="black"/>
</g>
<defs>
<filter id="filter0_d_1387_3861" x="315.125" y="8.19092" width="215.375" height="343.985" filterUnits="userSpaceOnUse" color-interpolation-filters="sRGB">
<feFlood flood-opacity="0" result="BackgroundImageFix"/>
<feColorMatrix in="SourceAlpha" type="matrix" values="0 0 0 0 0 0 0 0 0 0 0 0 0 0 0 0 0 0 127 0" result="hardAlpha"/>
<feOffset dy="4"/>
<feGaussianBlur stdDeviation="2"/>
<feComposite in2="hardAlpha" operator="out"/>
<feColorMatrix type="matrix" values="0 0 0 0 0 0 0 0 0 0 0 0 0 0 0 0 0 0 0.25 0"/>
<feBlend mode="normal" in2="BackgroundImageFix" result="effect1_dropShadow_1387_3861"/>
<feBlend mode="normal" in="SourceGraphic" in2="effect1_dropShadow_1387_3861" result="shape"/>
</filter>
<filter id="filter1_d_1387_3861" x="40.3391" y="407.354" width="192.588" height="139.369" filterUnits="userSpaceOnUse" color-interpolation-filters="sRGB">
<feFlood flood-opacity="0" result="BackgroundImageFix"/>
<feColorMatrix in="SourceAlpha" type="matrix" values="0 0 0 0 0 0 0 0 0 0 0 0 0 0 0 0 0 0 127 0" result="hardAlpha"/>
<feOffset dy="4"/>
<feGaussianBlur stdDeviation="2"/>
<feComposite in2="hardAlpha" operator="out"/>
<feColorMatrix type="matrix" values="0 0 0 0 0 0 0 0 0 0 0 0 0 0 0 0 0 0 0.25 0"/>
<feBlend mode="normal" in2="BackgroundImageFix" result="effect1_dropShadow_1387_3861"/>
<feBlend mode="normal" in="SourceGraphic" in2="effect1_dropShadow_1387_3861" result="shape"/>
</filter>
<filter id="filter2_d_1387_3861" x="0" y="202.726" width="115.455" height="230.363" filterUnits="userSpaceOnUse" color-interpolation-filters="sRGB">
<feFlood flood-opacity="0" result="BackgroundImageFix"/>
<feColorMatrix in="SourceAlpha" type="matrix" values="0 0 0 0 0 0 0 0 0 0 0 0 0 0 0 0 0 0 127 0" result="hardAlpha"/>
<feOffset dy="4"/>
<feGaussianBlur stdDeviation="2"/>
<feComposite in2="hardAlpha" operator="out"/>
<feColorMatrix type="matrix" values="0 0 0 0 0 0 0 0 0 0 0 0 0 0 0 0 0 0 0.25 0"/>
<feBlend mode="normal" in2="BackgroundImageFix" result="effect1_dropShadow_1387_3861"/>
<feBlend mode="normal" in="SourceGraphic" in2="effect1_dropShadow_1387_3861" result="shape"/>
</filter>
<filter id="filter3_d_1387_3861" x="292.091" y="225.83" width="137.241" height="275.932" filterUnits="userSpaceOnUse" color-interpolation-filters="sRGB">
<feFlood flood-opacity="0" result="BackgroundImageFix"/>
<feColorMatrix in="SourceAlpha" type="matrix" values="0 0 0 0 0 0 0 0 0 0 0 0 0 0 0 0 0 0 127 0" result="hardAlpha"/>
<feOffset dy="4"/>
<feGaussianBlur stdDeviation="2"/>
<feComposite in2="hardAlpha" operator="out"/>
<feColorMatrix type="matrix" values="0 0 0 0 0 0 0 0 0 0 0 0 0 0 0 0 0 0 0.25 0"/>
<feBlend mode="normal" in2="BackgroundImageFix" result="effect1_dropShadow_1387_3861"/>
<feBlend mode="normal" in="SourceGraphic" in2="effect1_dropShadow_1387_3861" result="shape"/>
</filter>
</defs>
</svg>
